<?xml version="1.0" encoding="utf-8"?>
<!-- Generator: Adobe Illustrator 21.1.0, SVG Export Plug-In . SVG Version: 6.00 Build 0)  -->
<svg version="1.0" id="Layer_1" xmlns="http://www.w3.org/2000/svg" xmlns:xlink="http://www.w3.org/1999/xlink" x="0px" y="0px"
	 viewBox="0 0 100 100" style="enable-background:new 0 0 100 100;" xml:space="preserve">
<style type="text/css">
	.st0{fill-rule:evenodd;clip-rule:evenodd;fill:#FFFFFF;}
	.st1{fill:#FFFFFF;}
</style>
<g>
	<g>
		<path class="st0" d="M34.4,63.8c2.1-1.6,3.6-3.7,4.9-5.9c-0.4,0.1-0.8,0.2-1.1,0.2c-1.6,0.3-3.2,0.2-4.8-0.4
			c-1.6-0.6-3-1.6-3.8-3.2c-0.6-1.1-0.8-2.3-0.6-3.6c0.3-1.5,1-2.8,2-4c1.3-1.5,2.8-2.6,4.5-3.5c3.6-2,6.9-4.3,10-7.1
			c0.2-0.2,0.5-0.4,0.7-0.6c0,0,0,0,0.1,0c0.1,0.2,0.1,0.4,0.2,0.6c1.1,4.1,3,7.9,5.3,11.5c1.3,2,2,4.2,2.1,6.6
			c0,0.4-0.1,0.9-0.1,1.3c0,0.1,0,0.1,0,0.2c-0.1,0.3-0.2,0.7-0.3,1c0,0.1-0.1,0.1-0.1,0.2c-0.2,0.5-0.4,1-0.7,1.4
			c-1.5,2.1-3.6,2.8-6.1,2.5c-1.6-0.2-3.1-0.9-4.3-1.9c-0.3-0.2-0.6-0.5-0.9-0.7c0,0.1,0,0.1,0,0.2c0,0.7,0,1.5,0,2.2
			c0,1.5,0.3,3,1.1,4.4c0.1,0.3,0.2,0.5,0.4,0.8C39.9,65.2,37.2,64.5,34.4,63.8z"/>
		<path class="st0" d="M27.2,20.9c0.9-0.7,1.5-1.6,2.1-2.6c-0.2,0-0.3,0.1-0.5,0.1c-0.7,0.1-1.4,0.1-2.1-0.2
			c-0.7-0.3-1.3-0.7-1.6-1.4c-0.3-0.5-0.3-1-0.2-1.6c0.1-0.7,0.4-1.2,0.9-1.7c0.5-0.6,1.2-1.1,1.9-1.5c1.6-0.9,3-1.9,4.3-3.1
			c0.1-0.1,0.2-0.2,0.3-0.3c0,0,0,0,0,0c0,0.1,0.1,0.2,0.1,0.2c0.5,1.8,1.3,3.4,2.3,5c0.5,0.9,0.9,1.8,0.9,2.9c0,0.2,0,0.4,0,0.6
			c0,0,0,0.1,0,0.1c0,0.1-0.1,0.3-0.1,0.4c0,0,0,0.1,0,0.1c-0.1,0.2-0.2,0.4-0.3,0.6c-0.7,0.9-1.6,1.2-2.6,1.1
			c-0.7-0.1-1.3-0.4-1.9-0.8c-0.1-0.1-0.2-0.2-0.4-0.3c0,0,0,0.1,0,0.1c0,0.3,0,0.6,0,1c0,0.7,0.2,1.3,0.5,1.9
			c0.1,0.1,0.1,0.2,0.2,0.4C29.6,21.6,28.4,21.3,27.2,20.9z"/>
		<path class="st0" d="M49.3,90.6c0.9-0.7,1.5-1.6,2.1-2.6c-0.2,0-0.3,0.1-0.5,0.1c-0.7,0.1-1.4,0.1-2.1-0.2
			c-0.7-0.3-1.3-0.7-1.6-1.4c-0.3-0.5-0.3-1-0.2-1.6c0.1-0.7,0.4-1.2,0.9-1.7c0.5-0.6,1.2-1.1,1.9-1.5c1.6-0.9,3-1.9,4.3-3.1
			c0.1-0.1,0.2-0.2,0.3-0.3c0,0,0,0,0,0c0,0.1,0.1,0.2,0.1,0.2c0.5,1.8,1.3,3.4,2.3,5c0.6,0.9,0.9,1.8,0.9,2.9c0,0.2,0,0.4,0,0.6
			c0,0,0,0.1,0,0.1c0,0.1-0.1,0.3-0.1,0.4c0,0,0,0.1,0,0.1c-0.1,0.2-0.2,0.4-0.3,0.6c-0.7,0.9-1.6,1.2-2.6,1.1
			c-0.7-0.1-1.3-0.4-1.9-0.8c-0.1-0.1-0.2-0.2-0.4-0.3c0,0,0,0.1,0,0.1c0,0.3,0,0.6,0,1c0,0.7,0.2,1.3,0.5,1.9
			c0.1,0.1,0.1,0.2,0.2,0.4C51.7,91.3,50.5,91,49.3,90.6z"/>
		<path class="st1" d="M77.9,17.6c1.5,0.4,2.4,1.9,2,3.4L60.4,94.2c-0.4,1.5-1.9,2.4-3.4,2L6.4,82.8c-1.5-0.4-2.4-1.9-2-3.4
			L23.8,6.2c0.4-1.5,1.9-2.4,3.4-2L77.9,17.6 M78.8,14L28.2,0.6c-3.5-0.9-7.1,1.2-8,4.6L0.8,78.4c-0.9,3.5,1.2,7.1,4.6,8L56,99.8
			c3.5,0.9,7.1-1.2,8-4.6L83.5,22C84.4,18.5,82.3,15,78.8,14L78.8,14z"/>
	</g>
	<g>
		<path class="st1" d="M51.8,9.1l14.9-0.6c0.3,0,0.6,0,0.8,0.1c1.2,0.3,2,1.3,2.1,2.6l0.1,2.6l3.8,1l-0.1-3.8
			c-0.1-2.9-2.1-5.3-4.9-6.1c-0.6-0.2-1.3-0.2-1.9-0.2l-27,1L51.8,9.1z"/>
		<path class="st1" d="M12.7,39.8l-1-26.3c-0.1-1.5,1.1-2.8,2.7-2.9l6.2-0.2l1-3.8l-7.3,0.3C10.6,7,7.8,10,8,13.6l1.5,38.5
			L12.7,39.8z"/>
		<path class="st1" d="M32,91.3l-14.5,0.6c-0.3,0-0.6,0-0.8-0.1c-1.2-0.3-2-1.3-2.1-2.6l-0.1-2.5l-3.8-1l0.1,3.7
			c0.1,2.9,2.1,5.3,4.9,6.1c0.6,0.2,1.3,0.2,1.9,0.2l26.6-1L32,91.3z"/>
		<path class="st1" d="M76.3,86.8l-1.5-38.8l-3.3,12.3l1,26.7c0.1,1.5-1.1,2.8-2.7,2.9l-6.3,0.2l-1,3.8l7.4-0.3
			C73.6,93.4,76.4,90.4,76.3,86.8z"/>
	</g>
</g>
</svg>
