<svg xmlns="http://www.w3.org/2000/svg" xmlns:xlink="http://www.w3.org/1999/xlink" viewBox="0 0 497.8 498.46"><defs><style>.cls-1{fill:url(#linear-gradient);}</style><linearGradient id="linear-gradient" y1="249.23" x2="498.46" y2="249.23" gradientUnits="userSpaceOnUse"><stop offset="0" stop-color="#f9f9f9"/><stop offset="0.13" stop-color="#b2b4b6"/><stop offset="0.4" stop-color="#fff"/><stop offset="0.67" stop-color="#f5f5f5"/><stop offset="0.9" stop-color="#a7a9ac"/><stop offset="1" stop-color="#f8f9f9"/></linearGradient></defs><title>Asset 9</title><g id="Layer_2" data-name="Layer 2"><g id="Layer_1-2" data-name="Layer 1"><path class="cls-1" d="M341,248.89,487,101.58c14.45-12.33,14.45-32.89,0-46.59L443.11,9.77a32.66,32.66,0,0,0-46.59,0l-149,148L100.23,9.77a32.66,32.66,0,0,0-46.59,0L9.79,55c-13.05,13.7-13.05,34.26,0,46.59L155.72,248.89,9.79,396.55c-13.05,13-13.05,34.26,0,45.91l43.85,47.27c13,11.65,33.54,11.65,46.59,0l147.27-148,149,148c13.05,11.65,33.61,11.65,46.59,0L487,442.45c14.45-11.65,14.45-32.89,0-45.91Z"/></g></g></svg>