
<svg xmlns="http://www.w3.org/2000/svg" version="1.1" xmlns:xlink="http://www.w3.org/1999/xlink" preserveAspectRatio="none" x="0px" y="0px" width="226px" height="208px" viewBox="0 0 226 208">
<defs>
<g id="Layer0_0_FILL">
<path fill="#FFFFFF" stroke="none" d="
M 171.35 162
Q 195.4 137.9 195.4 103.7 195.4 69.5 171.35 45.4 147.25 21.15 113.05 21.15 78.85 21.15 54.75 45.4 30.5 69.5 30.5 103.7 30.5 137.9 54.75 162 78.85 186.2 113.05 186.2 147.25 186.2 171.35 162
M 186.85 103.7
Q 186.85 134.2 165.2 155.85 143.55 177.5 113.05 177.5 82.5 177.5 60.75 155.85 39.1 134.2 39.1 103.7 39.1 73.15 60.75 51.55 82.5 29.9 113.05 29.9 143.55 29.9 165.2 51.55 186.85 73.15 186.85 103.7
M 158 58.9
Q 139.25 40.2 113.05 40.2 86.65 40.2 68.1 58.9 49.4 77.45 49.4 103.7 49.4 129.9 68.1 148.65 86.65 167.2 113.05 167.2 139.25 167.2 158 148.65 176.55 129.9 176.55 103.7 176.55 77.45 158 58.9
M 110.6 83
Q 104.6 83.6 100 87.45 99.1 88.2 98.3 88.95 92.95 94.35 92.35 101.4
L 54.15 101.4
Q 54.75 79.6 69.65 63.65
L 96.65 90.65
Q 98.3 88.65 100 87.45
L 73 60.45
Q 88.8 45.4 110.6 44.8
L 110.6 83
M 100.3 91.1
Q 105.55 85.75 113.05 85.75 120.4 85.75 125.6 91.1 130.85 96.35 130.85 103.7 130.85 111.05 125.6 116.4 120.4 121.65 113.05 121.65 105.55 121.65 100.3 116.4 95.1 111.05 95.1 103.7 95.1 96.35 100.3 91.1
M 153.1 60.3
L 126.1 87.45
Q 121.35 83.6 115.35 83
L 115.35 44.8
Q 137.15 45.4 153.1 60.3
M 129.3 90.65
L 156.45 63.65
Q 171.2 79.6 171.95 101.4
L 133.9 101.4
Q 133.15 95.4 129.3 90.65
M 69.65 143.75
Q 54.75 127.8 54.15 106
L 92.35 106
Q 92.95 113.05 98.3 118.4 99.1 119.2 100 119.95 104.6 123.8 110.6 124.55
L 110.6 162.75
Q 88.8 162 73 147.1
L 100 119.95
Q 98.3 118.7 96.65 116.75
L 69.65 143.75
M 156.45 143.9
L 129.3 116.75
Q 133.15 112 133.9 106
L 171.95 106
Q 171.2 127.8 156.45 143.9
M 126.1 120.1
L 153.1 147.1
Q 137.15 162 115.35 162.75
L 115.35 124.55
Q 121.35 123.8 126.1 120.1
M 113.05 90.65
Q 107.65 90.65 103.85 94.5 100 98.3 100 103.7 100 109.05 103.85 112.9 107.65 116.75 113.05 116.75 118.4 116.75 122.1 112.9 125.95 109.05 125.95 103.7 125.95 98.3 122.1 94.5 118.4 90.65 113.05 90.65
M 106.6 97.4
Q 109.2 94.8 113.05 94.8 116.7 94.8 119.35 97.4 121.95 100 121.95 103.7 121.95 107.35 119.35 110 116.7 112.6 113.05 112.6 109.2 112.6 106.6 110 104 107.35 104 103.7 104 100 106.6 97.4
M 205.85 144.2
Q 204.6 143.6 203.55 144.05 202.3 144.5 201.7 145.7 194.5 160.45 182.05 172.85 153.55 201.55 112.9 201.55 72.4 201.55 43.7 172.85 21.15 150.3 16.55 120.25
L 24.05 120.25 11.95 103.85 0 120.25 10.25 120.25
Q 10.25 120.4 10.25 120.7 15.15 152.95 39.4 177.15 69.95 207.7 112.9 207.7 156 207.7 186.35 177.15 199.7 163.8 207.25 148.35 207.85 147.1 207.4 146.05 206.9 144.8 205.85 144.2
M 225.8 103.85
L 216.9 103.85
Q 216.9 60.9 186.35 30.35 156 0 112.9 0 69.95 0 39.4 30.35 19.3 50.45 12.55 76.1 12.1 77.3 12.85 78.4 13.5 79.45 14.7 79.9 15.95 80.2 17 79.6 18.1 78.85 18.55 77.6 24.85 53.55 43.7 34.65 72.4 6.15 112.9 6.15 153.55 6.15 182.05 34.65 210.75 63.35 210.75 103.85
L 201.55 103.85 213.65 120.25 225.8 103.85 Z"/>
</g>
</defs>

<g transform="matrix( 1, 0, 0, 1, 0,0) ">
<use xlink:href="#Layer0_0_FILL"/>
</g>
</svg>
