<svg xmlns="http://www.w3.org/2000/svg" xmlns:xlink="http://www.w3.org/1999/xlink" viewBox="0 0 498.11 457.12"><defs><style>.cls-1{fill:url(#linear-gradient);}</style><linearGradient id="linear-gradient" x1="-14.93" y1="231.44" x2="497.83" y2="231.44" gradientTransform="matrix(1, 0, 0, -1, 0, 460)" gradientUnits="userSpaceOnUse"><stop offset="0" stop-color="#f9f9f9"/><stop offset="0.13" stop-color="#b2b4b6"/><stop offset="0.4" stop-color="#fff"/><stop offset="0.67" stop-color="#f5f5f5"/><stop offset="0.9" stop-color="#a7a9ac"/><stop offset="1" stop-color="#f8f9f9"/></linearGradient></defs><title>re-bet</title><g id="Layer_2" data-name="Layer 2"><g id="Layer_1-2" data-name="Layer 1"><path class="cls-1" d="M492.62,37.63a11.06,11.06,0,0,0-12.16.64l-70.3,51.65a226.91,226.91,0,0,0-147-87.25,232.58,232.58,0,0,0-35-2.67A228.65,228.65,0,0,0,2.67,194,228.55,228.55,0,0,0,194,454.46a233.37,233.37,0,0,0,35,2.65,226.33,226.33,0,0,0,134.85-44.4,14.93,14.93,0,0,0,3.19-20.9l-39.81-54.19a14.92,14.92,0,0,0-20.88-3.18A130.08,130.08,0,0,1,228.9,360a134,134,0,0,1-20.19-1.54A131.4,131.4,0,0,1,228.26,97.15a133.05,133.05,0,0,1,20.16,1.54,130.37,130.37,0,0,1,83.37,48.8L263,198a11.1,11.1,0,0,0,4.55,19.85l193.55,35.61a11.11,11.11,0,0,0,13-9.56L498,48.54A11.09,11.09,0,0,0,492.62,37.63Z"/></g></g></svg>