<svg xmlns="http://www.w3.org/2000/svg" viewBox="0 0 80.85 87.81"><defs><style>.cls-1{fill:#fff;stroke:#fff;stroke-miterlimit:10;}</style></defs><title>Asset 211</title><g id="Layer_2" data-name="Layer 2"><g id="DROP_DOWN_MENU_V_UPDATED" data-name="DROP DOWN MENU V UPDATED"><path class="cls-1" d="M.5,45.82A3.42,3.42,0,0,1,2.07,43.9L41.41,17.25l1-.69Q48.24,26.64,54,36.68l-3,1.45L36.42,45.21A.73.73,0,0,0,36,46q0,14.35,0,28.7v3.79H50.85v8.84h-39V78.49H27.11V49.74l-.44.21L12.92,56.58,9.73,58.14a2.36,2.36,0,0,1-3.25-1q-2.73-4.68-5.43-9.38A11.41,11.41,0,0,1,.5,46.53Zm41.25-26.3-.25.15-6.85,4.64-16.2,11L4,45.11l-1.14.79a.38.38,0,0,0-.12.59c.23.36.42.73.63,1.09l4.92,8.49c.16.29.32.34.62.19l16-7.74a7.5,7.5,0,0,1,2-.78,2,2,0,0,1,1.32.26,2.16,2.16,0,0,1,1,2.06q0,15.06,0,30.12v.38H13.89v4.68H48.78V80.55H33.93v-.43q0-12.42,0-24.85c0-3.12,0-6.23,0-9.35a2.64,2.64,0,0,1,1.51-2.53l15.4-7.45.3-.16L47.6,29.65Z"/><path class="cls-1" d="M80.35,19.57c-.09.64-.15,1.28-.27,1.92a17.47,17.47,0,0,1-4.31,8.94l-.31.33-.16.14L58,1l2.8-.43L61.27.5h2.14a1.26,1.26,0,0,0,.28.05,16.11,16.11,0,0,1,3.89.74c6.93,2.32,11.08,7.09,12.51,14.24.13.61.17,1.23.26,1.84Zm-18.9-17-.08.1L75.64,27.36c3.31-5.59,3.72-11.22.47-16.82S67.81,2.48,61.45,2.54Z"/><path class="cls-1" d="M71.45,34.05c-.82.37-1.58.77-2.37,1.09a17.89,17.89,0,0,1-9.9.9,1.35,1.35,0,0,1-1-.73Q51.95,24.5,45.68,13.69a1.43,1.43,0,0,1-.13-1.33A17.9,17.9,0,0,1,53,3.08l.41-.22Zm-2.91-.92L52.73,5.76c-.43.37-.83.71-1.21,1.07a15.84,15.84,0,0,0-3.83,5.72.58.58,0,0,0,0,.57C49.43,16,51.11,19,52.8,21.89q3.47,6,6.91,12a.52.52,0,0,0,.43.28,18.65,18.65,0,0,0,4.48.06A13.19,13.19,0,0,0,68.54,33.13Z"/></g></g></svg>