<svg xmlns="http://www.w3.org/2000/svg" viewBox="0 0 339.12 324.96"><defs><style>.cls-1{fill:none;stroke:#fff;stroke-miterlimit:10;stroke-width:20px;}</style></defs><title>ranking</title><g id="Layer_2" data-name="Layer 2"><g id="Layer_1-2" data-name="Layer 1"><path class="cls-1" d="M182.85,18.26l37.83,76.65A14.82,14.82,0,0,0,231.84,103l84.58,12.29a14.82,14.82,0,0,1,8.21,25.28l-61.21,59.66a14.82,14.82,0,0,0-4.26,13.12l14.45,84.24a14.82,14.82,0,0,1-21.5,15.62l-75.65-39.77a14.82,14.82,0,0,0-13.79,0L87,313.22a14.82,14.82,0,0,1-21.5-15.62L80,213.36a14.82,14.82,0,0,0-4.26-13.12L14.49,140.58A14.82,14.82,0,0,1,22.7,115.3L107.29,103a14.82,14.82,0,0,0,11.16-8.11l37.83-76.65A14.82,14.82,0,0,1,182.85,18.26Z"/></g></g></svg>