<svg xmlns="http://www.w3.org/2000/svg" viewBox="0 0 326 326"><defs><style>.cls-1{fill:#000;opacity:0.8;}</style></defs><title>close</title><g id="Layer_2" data-name="Layer 2"><g id="Layer_1-2" data-name="Layer 1"><path class="cls-1" d="M163,0A163,163,0,1,0,326,163,163,163,0,0,0,163,0Zm81.84,220.4a17.28,17.28,0,1,1-24.43,24.43L163,187.43l-57.4,57.4A17.28,17.28,0,1,1,81.16,220.4l57.4-57.4-57.4-57.4A17.28,17.28,0,1,1,105.6,81.16l57.4,57.4,57.4-57.4a17.28,17.28,0,1,1,24.43,24.43L187.43,163Z"/></g></g></svg>