<?xml version="1.0" encoding="utf-8"?>
<!-- Generator: Adobe Illustrator 21.1.0, SVG Export Plug-In . SVG Version: 6.00 Build 0)  -->
<svg version="1.1" id="Layer_1" xmlns="http://www.w3.org/2000/svg" xmlns:xlink="http://www.w3.org/1999/xlink" x="0px" y="0px"
	 viewBox="0 0 389 330.5" style="enable-background:new 0 0 389 330.5;" xml:space="preserve">
<style type="text/css">
	.st0{fill:#FFFFFF;}
	.st1{fill:none;stroke:#FFFFFF;stroke-width:20;stroke-linecap:round;stroke-linejoin:round;}
</style>
<title>soundfx</title>
<g id="Layer_2">
	<g id="Layer_1-2">
		<path class="st0" d="M213.9,20c6.9,0,12.5,5.5,12.5,12.3v0.1V298c0,6.9-5.5,12.4-12.4,12.5h-0.1c-3,0-5.8-1.1-8.1-3.1L119.9,233
			c-1.3-1.1-2.3-2.5-3.1-4H35c-8.3,0-15-6.7-15-15l0,0v-98.1c0-8.3,6.7-15,15-15h82.2c0.7-1.3,1.6-2.4,2.7-3.4L205.8,23
			C208.1,21.1,210.9,20,213.9,20 M213.9,0c-7.8,0-15.3,2.8-21.2,7.9l-84.2,72.9H35c-19.3,0-35,15.7-35,35V214c0,19.3,15.7,35,35,35
			l0,0h72.8l84.9,73.6c13.5,11.7,34,10.3,45.7-3.2c5.1-5.9,8-13.5,7.9-21.3V32.5C246.3,14.5,231.8,0,213.9,0z"/>
		<path class="st1" d="M280,103.7c0,0,38.8,57.2,0,123.1"/>
		<path class="st1" d="M311.5,69.2c0,0,60.5,89.3,0,192.1"/>
		<path class="st1" d="M343.5,38.4c0,0,79.9,117.9,0,253.6"/>
	</g>
</g>
</svg>
