<svg xmlns="http://www.w3.org/2000/svg" viewBox="0 0 344 324.19">
    <defs>
        <style>
            .cls-1 {
                fill: none;
                stroke: #fff;
                stroke-miterlimit: 10;
                stroke-width: 20px;
            }
            
            .cls-2 {
                fill: red;
            }
        </style>
    </defs>
    <title>no-video</title>
    <g id="Layer_2" data-name="Layer 2">
        <g id="Layer_1-2" data-name="Layer 1">
            <circle class="cls-1" cx="69.2" cy="69.03" r="38.37" />
            <path class="cls-1" d="M310.6,153.16l-53.46,22.92V146.36c0-8.3-10.68-15-23.86-15H33.86c-13.18,0-23.86,6.73-23.86,15v152.8c0,8.3,10.68,15,23.86,15H233.28c13.18,0,23.86-6.73,23.86-15v-30l53.46,22.92c12.09,5.18,23.4,6,23.4,1.12V152C334,147.14,322.68,148,310.6,153.16Z" />
            <circle class="cls-1" cx="180.3" cy="58.7" r="48.7" />
            <path class="cls-2" d="M156.67,222.5l37.26-37.26a13.91,13.91,0,0,0,0-19.67h0a13.91,13.91,0,0,0-19.67,0L137,202.83,99.74,165.57a13.91,13.91,0,0,0-19.67,0h0a13.91,13.91,0,0,0,0,19.67l37.26,37.26L80.07,259.76a13.91,13.91,0,1,0,19.67,19.67L137,242.17l37.26,37.26a13.91,13.91,0,1,0,19.67-19.67Z" />
        </g>
    </g>
</svg>