<svg id="b57da295-3271-4705-a923-91bdcd290e3b" data-name="Layer 1" xmlns="http://www.w3.org/2000/svg" xmlns:xlink="http://www.w3.org/1999/xlink" viewBox="0 0 23.54 23.59"><defs><style>.\37 4c58ad9-9212-4b7a-a912-7ad7c771ae4a{fill:url(#2062d24c-7a02-441a-88cf-ea38efc20a0c);}</style><linearGradient id="2062d24c-7a02-441a-88cf-ea38efc20a0c" x1="156.7" y1="107.37" x2="183.7" y2="81.04" gradientUnits="userSpaceOnUse"><stop offset="0" stop-color="#95815b"/><stop offset="0.24" stop-color="#b5a887"/><stop offset="0.53" stop-color="#dad5b9"/><stop offset="0.62" stop-color="#bbb297"/><stop offset="0.72" stop-color="#a3977c"/><stop offset="0.81" stop-color="#918369"/><stop offset="0.9" stop-color="#86775e"/><stop offset="1" stop-color="#83735a"/></linearGradient></defs><title>game-settings</title><path class="74c58ad9-9212-4b7a-a912-7ad7c771ae4a" d="M170.23,82.92l.52,1.52L171,85l.65.06a8.24,8.24,0,0,1,1.66.32l.62.19.43-.49,1.05-1.2,1.27.7-.47,1.53-.19.62.49.43a8.4,8.4,0,0,1,1.16,1.25L178,89l.63-.14,1.56-.36.61,1.31-1.27,1-.51.38.13.62a9.22,9.22,0,0,1,.2,1.7l0,.64.59.25,1.47.63-.28,1.42-1.6,0h-.65l-.25.59a8.55,8.55,0,0,1-.82,1.49l-.37.53.33.55.82,1.37-1.06,1-1.31-.92-.53-.37-.55.33a8.39,8.39,0,0,1-.75.4c-.26.12-.52.23-.79.32l-.61.21-.06.64-.15,1.59-1.43.17-.52-1.51-.21-.6-.64-.06a8.78,8.78,0,0,1-1.67-.33l-.62-.19-.43.49-1.06,1.21-1.26-.7.47-1.53.19-.62-.49-.43A8.06,8.06,0,0,1,164,98.8l-.39-.52-.63.14-1.56.36-.61-1.31,1.28-1,.51-.39-.14-.63a8.55,8.55,0,0,1-.2-1.69v-.65l-.6-.25-1.47-.63.28-1.42,1.6,0h.64l.26-.59a8.65,8.65,0,0,1,.83-1.48l.37-.53-.33-.55L163,86.29l1.06-1,1.31.92.54.38.56-.34a7.2,7.2,0,0,1,.74-.39c.29-.13.55-.24.78-.32l.61-.21.06-.64.15-1.59,1.44-.18m.57,17.57a6.81,6.81,0,0,0,2.89-.64,6.86,6.86,0,1,0-2.89.64m.11-18.66-3,.37-.22,2.4c-.29.1-.59.22-.87.36a8.3,8.3,0,0,0-.84.44L164,84l-2.24,2.09,1.23,2.07a9.6,9.6,0,0,0-.92,1.66l-2.41,0-.59,3,2.22.95a9.53,9.53,0,0,0,.23,1.89l-1.92,1.45,1.28,2.77,2.35-.53a9,9,0,0,0,1.29,1.39l-.7,2.31,2.68,1.49,1.59-1.81a9.76,9.76,0,0,0,1.86.37l.79,2.27,3-.37.22-2.4q.44-.15.88-.36a9.39,9.39,0,0,0,.84-.45l2,1.38,2.24-2.08-1.23-2.07a9.51,9.51,0,0,0,.91-1.66l2.41,0,.59-3-2.21-.95a10.21,10.21,0,0,0-.23-1.88L182,90.09l-1.29-2.78-2.35.54a9.46,9.46,0,0,0-1.3-1.39l.71-2.3-2.68-1.49-1.58,1.81a9.26,9.26,0,0,0-1.86-.36l-.78-2.28Zm-.11,17.66a5.87,5.87,0,1,1,2.46-.55,5.87,5.87,0,0,1-2.46.55Z" transform="translate(-159.03 -81.83)"/></svg>