<?xml version="1.0" encoding="utf-8"?>
<!-- Generator: Adobe Illustrator 21.1.0, SVG Export Plug-In . SVG Version: 6.00 Build 0)  -->
<svg version="1.1" id="Layer_1" xmlns="http://www.w3.org/2000/svg" xmlns:xlink="http://www.w3.org/1999/xlink" x="0px" y="0px"
	 viewBox="0 0 35 25.8" style="enable-background:new 0 0 35 25.8;" xml:space="preserve">
<title>Asset 1</title>
<g id="_x31_67292a5-a136-4afc-ac67-1eb9b9dbda43">
	<g id="_x30_b8586c4-726b-466c-934d-f26fec46efc0">
		<g id="ead8ff06-c681-429d-9f4f-058194595337">
			<path d="M32,0c-0.8,0-1.6,0.3-2.1,0.9L12,18.6l-6.9-6.7C4.5,11.3,3.8,11,3,11c-0.8,0-1.6,0.4-2.1,0.9C0.3,12.5,0,13.3,0,14.1
				c0,0.8,0.4,1.6,0.9,2.1l9.1,8.8c0.6,0.6,1.3,0.9,2.1,0.9c0.8,0,1.5-0.3,2.1-0.9L34.1,5.2C34.7,4.6,35,3.8,35,3
				c0-0.8-0.3-1.5-0.9-2.1C33.5,0.3,32.8,0,32,0z"/>
		</g>
	</g>
</g>
</svg>
