<svg id="f94c0f64-696f-4141-88a6-5a25452f4d4f" data-name="Layer 1" xmlns="http://www.w3.org/2000/svg" xmlns:xlink="http://www.w3.org/1999/xlink" viewBox="0 0 21.46 21.46"><defs><style>.\39 4b5b177-a385-40b0-b74c-c329762bc160{fill:url(#90bbd175-dcd4-4c5d-bc97-d4a73d66f317);}.fbc099fe-fcc4-4fb3-884d-447854c94883{fill:url(#fac92ef8-f447-441a-9d5e-b21f38ce0f57);}.\38 1abc4d0-b77b-4972-bbf5-f8fdc455242b{fill:url(#2eee041b-d1e5-4dd4-9127-ca28c484909a);}.abaad155-2d19-49f7-98a0-1b69cb0af887{fill:url(#922b7950-f803-49e9-803a-6d45f89245af);}</style><linearGradient id="90bbd175-dcd4-4c5d-bc97-d4a73d66f317" x1="3160.98" y1="2223.73" x2="3190.98" y2="2193.98" gradientUnits="userSpaceOnUse"><stop offset="0" stop-color="#95815b"/><stop offset="0.24" stop-color="#b5a887"/><stop offset="0.53" stop-color="#dad5b9"/><stop offset="0.62" stop-color="#bbb297"/><stop offset="0.72" stop-color="#a3977c"/><stop offset="0.81" stop-color="#918369"/><stop offset="0.9" stop-color="#86775e"/><stop offset="1" stop-color="#83735a"/></linearGradient><linearGradient id="fac92ef8-f447-441a-9d5e-b21f38ce0f57" x1="3158.53" y1="2221.26" x2="3188.53" y2="2191.51" xlink:href="#90bbd175-dcd4-4c5d-bc97-d4a73d66f317"/><linearGradient id="2eee041b-d1e5-4dd4-9127-ca28c484909a" x1="-4.17" y1="25.37" x2="25.83" y2="-4.38" xlink:href="#90bbd175-dcd4-4c5d-bc97-d4a73d66f317"/><linearGradient id="922b7950-f803-49e9-803a-6d45f89245af" x1="3163.28" y1="2226.06" x2="3193.28" y2="2196.31" xlink:href="#90bbd175-dcd4-4c5d-bc97-d4a73d66f317"/></defs><title>records</title><path class="94b5b177-a385-40b0-b74c-c329762bc160" d="M3185.54,2199.29v19.46h-19.46v-19.46h19.46m1-1h-21.46v21.46h21.46v-21.46Z" transform="translate(-3165.08 -2198.29)"/><path class="fbc099fe-fcc4-4fb3-884d-447854c94883" d="M3181,2203.37v1.5h-10.39v-1.5H3181m1-1h-12.39v3.5H3182v-3.5Z" transform="translate(-3165.08 -2198.29)"/><rect class="81abc4d0-b77b-4972-bbf5-f8fdc455242b" x="4.54" y="9.21" width="12.39" height="2.75"/><path class="abaad155-2d19-49f7-98a0-1b69cb0af887" d="M3181,2212.88v1.5h-10.39v-1.5H3181m1-1h-12.39v3.5H3182v-3.5Z" transform="translate(-3165.08 -2198.29)"/></svg>