<?xml version="1.0" encoding="utf-8"?>
<!-- Generator: Adobe Illustrator 21.1.0, SVG Export Plug-In . SVG Version: 6.00 Build 0)  -->
<svg version="1.1" id="Layer_1" xmlns="http://www.w3.org/2000/svg" xmlns:xlink="http://www.w3.org/1999/xlink" x="0px" y="0px"
	 viewBox="0 0 53 53" style="enable-background:new 0 0 53 53;" xml:space="preserve">
<title>Asset 5</title>
<g id="_x34_618197a-41b4-4198-a8cc-90aa96b2921c">
	<g id="_x39_a9fca87-e160-4b0b-aa8b-5d5d95ccc867">
		<g id="_x33_71eb9de-28bd-4678-acda-b1c010e45cfe">
			<path d="M23.9,38.9v5.7h5.6v-5.7H23.9 M29.8,17.8v-6.9h-6.1v7l1.5,15h3.1L29.8,17.8z"/>
		</g>
		<g id="e7f970f8-706a-45cf-8f37-97fee37a5846">
			<path d="M53,26.5c0.1-7.1-2.7-13.8-7.8-18.8C40.3,2.7,33.5-0.1,26.5,0c-7-0.1-13.8,2.7-18.8,7.8C2.7,12.7-0.1,19.5,0,26.5
				c-0.1,7,2.7,13.8,7.8,18.7c4.9,5.1,11.7,7.9,18.8,7.8c7,0.1,13.8-2.7,18.7-7.8l0,0C50.3,40.3,53.1,33.5,53,26.5 M26.5,3
				c6.2-0.1,12.2,2.4,16.6,6.9c4.5,4.4,7,10.4,6.9,16.7c0.1,6.2-2.4,12.3-6.9,16.6c-4.3,4.5-10.4,7-16.6,6.9
				c-6.3,0.1-12.3-2.4-16.6-6.9c-4.5-4.4-7-10.4-6.9-16.6C2.9,20.3,5.4,14.3,9.9,9.9l0.1-0.1C14.3,5.4,20.3,2.9,26.5,3z"/>
		</g>
	</g>
</g>
</svg>
