<svg xmlns="http://www.w3.org/2000/svg" viewBox="0 0 80.85 87.83"><defs><style>.cls-1{fill:#fff;stroke:#fff;stroke-miterlimit:10;}.cls-2{fill:red;}</style></defs><title>MicOff_Ico</title><g id="Layer_2" data-name="Layer 2"><g id="Mic"><g id="DROP_DOWN_MENU_V_UPDATED" data-name="DROP DOWN MENU V UPDATED"><path class="cls-1" d="M.5,45.82A3.39,3.39,0,0,1,2.07,43.9L41.41,17.25l1-.69Q48.25,26.64,54,36.68l-3,1.45L36.42,45.21A.73.73,0,0,0,36,46V78.49H50.85v8.84h-39V78.49H27.11V49.74l-.44.21L12.92,56.58,9.73,58.14a2.36,2.36,0,0,1-3.21-.92s0,0,0-.08q-2.73-4.68-5.43-9.38A11.26,11.26,0,0,1,.5,46.53Zm41.25-26.3-.25.15-6.85,4.64-16.2,11L4,45.11l-1.14.79a.37.37,0,0,0-.17.51.22.22,0,0,0,.05.08c.23.36.42.73.63,1.09l4.92,8.49c.16.29.32.34.62.19l16-7.74a7.63,7.63,0,0,1,2-.78,2,2,0,0,1,1.32.26,2.16,2.16,0,0,1,1,2.06v30.5H13.89v4.68H48.78V80.55H33.93V45.92a2.64,2.64,0,0,1,1.51-2.53l15.4-7.45.3-.16L47.6,29.65Z"/><path class="cls-1" d="M80.35,19.57c-.09.64-.15,1.28-.27,1.92a17.47,17.47,0,0,1-4.31,8.94l-.31.33-.16.14L58,1,60.8.57,61.27.5h2.14a1.37,1.37,0,0,0,.28.05,16.11,16.11,0,0,1,3.89.74c6.93,2.32,11.08,7.09,12.51,14.24.13.61.17,1.23.26,1.84Zm-18.9-17-.08.1L75.64,27.36c3.31-5.59,3.72-11.22.47-16.82s-8.3-8.06-14.66-8Z"/><path class="cls-1" d="M71.45,34.05c-.82.37-1.58.77-2.37,1.09a17.89,17.89,0,0,1-9.9.9,1.37,1.37,0,0,1-1-.73Q52,24.5,45.68,13.69a1.43,1.43,0,0,1-.13-1.33A17.88,17.88,0,0,1,53,3.08l.41-.22Zm-2.91-.92L52.73,5.76c-.43.37-.83.71-1.21,1.07a15.84,15.84,0,0,0-3.83,5.72.58.58,0,0,0,0,.57C49.43,16,51.11,19,52.8,21.89q3.47,6,6.91,12a.52.52,0,0,0,.43.28,18.66,18.66,0,0,0,4.48.06A13,13,0,0,0,68.54,33.13Z"/></g></g><g id="Layer_3" data-name="Layer 3"><polygon class="cls-2" points="48.25 49.62 52.75 45.6 59.87 53.49 68.04 46.42 71.86 50.88 64.03 57.99 70.9 65.88 66.64 69.84 59.48 62.15 51.64 69.07 47.62 64.62 55.46 57.72 48.25 49.62"/></g></g></svg>