<svg id="967a7b08-8e5e-42ad-bc4e-71889a5d73ce" data-name="Layer 1" xmlns="http://www.w3.org/2000/svg" xmlns:xlink="http://www.w3.org/1999/xlink" viewBox="0 0 24.12 24.78"><defs><style>.\32 19c46c5-f620-4336-914b-e815fec53b49{fill:url(#aa64a860-6408-4e93-9227-296644140989);}</style><linearGradient id="aa64a860-6408-4e93-9227-296644140989" x1="3136.55" y1="2221.78" x2="3155.53" y2="2202.96" gradientUnits="userSpaceOnUse"><stop offset="0" stop-color="#95815b"/><stop offset="0.24" stop-color="#b5a887"/><stop offset="0.53" stop-color="#dad5b9"/><stop offset="0.62" stop-color="#bbb297"/><stop offset="0.72" stop-color="#a3977c"/><stop offset="0.81" stop-color="#918369"/><stop offset="0.9" stop-color="#86775e"/><stop offset="1" stop-color="#83735a"/></linearGradient></defs><title>avatars</title><path class="219c46c5-f620-4336-914b-e815fec53b49" d="M3146.07,2197a5.12,5.12,0,0,1,2.45,9.62,11.78,11.78,0,0,1,8.61,11.56,1.64,1.64,0,0,1-1.64,1.6h-18.84a1.64,1.64,0,0,1-1.64-1.6,11.78,11.78,0,0,1,8.61-11.56,5.12,5.12,0,0,1,2.45-9.62m0-1a6.12,6.12,0,0,0-4.51,10.25,12.91,12.91,0,0,0-7.55,11.92,2.63,2.63,0,0,0,2.64,2.61h18.84a2.63,2.63,0,0,0,2.64-2.57,12.92,12.92,0,0,0-7.55-11.95,6.12,6.12,0,0,0-4.51-10.25Z" transform="translate(-3134.01 -2195.99)"/></svg>