<svg xmlns="http://www.w3.org/2000/svg" viewBox="0 0 363.68 322.65"><defs><style>.cls-1,.cls-2{fill:none;stroke-miterlimit:10;stroke-width:20px;}.cls-1{stroke:#fff;stroke-linecap:round;}.cls-2{stroke:#fcfcfc;}.cls-3{fill:#fff;}.cls-4{fill:#bababa;}</style></defs><title>history</title><g id="Layer_2" data-name="Layer 2"><g id="Layer_1-2" data-name="Layer 1"><path class="cls-1" d="M231,75.15V22a12,12,0,0,0-12-12H22A12,12,0,0,0,10,22V300.3a12,12,0,0,0,12,12H161"/><rect class="cls-2" x="194" y="103.65" width="159.68" height="35.95" rx="12" ry="12"/><rect class="cls-2" x="194" y="276.7" width="159.68" height="35.95" rx="12" ry="12"/><path class="cls-2" d="M206.54,139.6h134.6a0,0,0,0,1,0,0v.68a64.52,64.52,0,0,1-64.52,64.52h-5.55a64.52,64.52,0,0,1-64.52-64.52v-.68a0,0,0,0,1,0,0Z"/><path class="cls-2" d="M273.13,204.8h1.41a66.59,66.59,0,0,1,66.59,66.59v4.89a0,0,0,0,1,0,0H206.54a0,0,0,0,1,0,0V271.4A66.59,66.59,0,0,1,273.13,204.8Z"/><rect class="cls-3" x="35" y="46.65" width="171" height="19" rx="9.5" ry="9.5"/><rect class="cls-3" x="35" y="98.15" width="137" height="19" rx="9.5" ry="9.5"/><rect class="cls-3" x="35" y="149.65" width="137" height="19" rx="9.5" ry="9.5"/><rect class="cls-3" x="35" y="201.15" width="137" height="19" rx="9.5" ry="9.5"/><rect class="cls-3" x="35" y="252.65" width="137" height="19" rx="9.5" ry="9.5"/><path class="cls-4" d="M320.45,258.65a47,47,0,0,0-90.9,0Z"/></g></g></svg>