<svg id="243b8711-fb39-4f65-bfc9-023a9c7587ad" data-name="Layer 1" xmlns="http://www.w3.org/2000/svg" xmlns:xlink="http://www.w3.org/1999/xlink" viewBox="0 0 41.13 55.27"><defs><style>.\30 f739830-5840-4840-9955-acc320cd75ac{fill:url(#0e1cf1d5-c964-46a8-a256-c6ef9dba8e79);}.\35 af1677f-bb80-473a-b1bc-ecd5f37bc010{fill:url(#6076a406-3ce6-488b-bc4b-d65da1c38987);}.e56f071b-06ad-44f1-8778-015e3f844a24{fill:url(#9e7cd6ca-40e5-41de-98ab-475e6ba61e5a);}.\32 9a62b92-168b-4ea5-b94d-3cd202557c14{fill:url(#451cdf0d-cc6e-48ba-b40c-042b67231167);}.\34 1a44279-4030-44f3-a0a7-9ff92bae804e{fill:url(#54d594c7-7017-42d1-9681-c2316d2905bd);}</style><linearGradient id="0e1cf1d5-c964-46a8-a256-c6ef9dba8e79" x1="487.35" y1="3.23" x2="517.13" y2="54.43" gradientUnits="userSpaceOnUse"><stop offset="0" stop-color="#95815b"/><stop offset="0.24" stop-color="#b5a887"/><stop offset="0.53" stop-color="#dad5b9"/><stop offset="0.62" stop-color="#bbb398"/><stop offset="0.72" stop-color="#a2987d"/><stop offset="0.81" stop-color="#90846a"/><stop offset="0.9" stop-color="#86785f"/><stop offset="1" stop-color="#82745b"/></linearGradient><linearGradient id="6076a406-3ce6-488b-bc4b-d65da1c38987" x1="490.23" y1="1.56" x2="520.01" y2="52.76" xlink:href="#0e1cf1d5-c964-46a8-a256-c6ef9dba8e79"/><linearGradient id="9e7cd6ca-40e5-41de-98ab-475e6ba61e5a" x1="24.43" y1="18.99" x2="24.43" y2="47.55" xlink:href="#0e1cf1d5-c964-46a8-a256-c6ef9dba8e79"/><linearGradient id="451cdf0d-cc6e-48ba-b40c-042b67231167" x1="24.43" y1="24.36" x2="24.43" y2="52.92" xlink:href="#0e1cf1d5-c964-46a8-a256-c6ef9dba8e79"/><linearGradient id="54d594c7-7017-42d1-9681-c2316d2905bd" x1="24.43" y1="29.73" x2="24.43" y2="58.29" xlink:href="#0e1cf1d5-c964-46a8-a256-c6ef9dba8e79"/></defs><title>reports</title><path class="0f739830-5840-4840-9955-acc320cd75ac" d="M493.18,47.48h-7.31V2.5h28.28V9.38h2.57V1.21a1.29,1.29,0,0,0-1.29-1.29H484.58a1.29,1.29,0,0,0-1.29,1.29V48.77a1.29,1.29,0,0,0,1.29,1.29h8.6Z" transform="translate(-483.29 0.07)"/><path class="5af1677f-bb80-473a-b1bc-ecd5f37bc010" d="M523.14,8.09h-18a1.29,1.29,0,0,0-.9.37L491.41,21.11A1.28,1.28,0,0,0,491,22V53.91a1.29,1.29,0,0,0,1.29,1.29h30.83a1.29,1.29,0,0,0,1.29-1.29V9.38A1.29,1.29,0,0,0,523.14,8.09Zm-19.33,4.36v8.36h-8.45Zm18,40.17H493.59V23.38h11.5a1.29,1.29,0,0,0,1.29-1.29V10.66h15.48Z" transform="translate(-483.29 0.07)"/><rect class="e56f071b-06ad-44f1-8778-015e3f844a24" x="14.37" y="28.26" width="20.12" height="3.45"/><rect class="29a62b92-168b-4ea5-b94d-3cd202557c14" x="14.37" y="33.63" width="20.12" height="3.45"/><rect class="41a44279-4030-44f3-a0a7-9ff92bae804e" x="14.37" y="39" width="20.12" height="3.45"/></svg>