<svg xmlns="http://www.w3.org/2000/svg" viewBox="0 0 363.43 323.04"><defs><style>.cls-1{fill:none;stroke:#fcfcfc;stroke-linecap:round;stroke-miterlimit:10;stroke-width:20px;}.cls-2{fill:#fcfcfc;}</style></defs><title>follow</title><g id="Layer_2" data-name="Layer 2"><g id="Layer_1-2" data-name="Layer 1"><path class="cls-1" d="M335.12,283.42a192.49,192.49,0,0,1,18.31,29.26"/><path class="cls-2" d="M181.71,20a71.45,71.45,0,1,1-71.45,71.45A71.53,71.53,0,0,1,181.71,20m0-20a91.45,91.45,0,1,0,91.45,91.45A91.45,91.45,0,0,0,181.71,0Z"/><path class="cls-2" d="M258,206.71a58.17,58.17,0,1,0,58.17,58.17A58.17,58.17,0,0,0,258,206.71Zm40.71,58.91a8.32,8.32,0,0,1-8.3,8.3H267.07v23.36a8.32,8.32,0,0,1-8.3,8.3h-1.5a8.32,8.32,0,0,1-8.3-8.3V273.92H225.62a8.32,8.32,0,0,1-8.3-8.3v-1.5a8.32,8.32,0,0,1,8.3-8.3H249V232.47a8.32,8.32,0,0,1,8.3-8.3h1.5a8.32,8.32,0,0,1,8.3,8.3v23.36h23.36a8.32,8.32,0,0,1,8.3,8.3Z"/><path class="cls-1" d="M10,312.68A192.39,192.39,0,0,1,181.71,207.16q9.69,0,19.14.94"/></g></g></svg>