<svg xmlns="http://www.w3.org/2000/svg" viewBox="0 0 86.84 86.87"><defs><style>.cls-1{fill:#fff;}</style></defs><title>Game_Rules_Icon_H_1</title><g id="Layer_2" data-name="Layer 2"><g id="Layer_1-2" data-name="Layer 1"><g id="ICONS_H" data-name="ICONS H"><g id="GAME_RULES" data-name="GAME RULES"><path class="cls-1" d="M43.42,4.11A39.32,39.32,0,1,1,4.11,43.44,39.36,39.36,0,0,1,43.42,4.11h0m0-4.11h0a43.44,43.44,0,0,0,0,86.87h0A43.44,43.44,0,0,0,43.42,0Z"/><path class="cls-1" d="M27.19,32.43a11.73,11.73,0,0,1,2-6.25A15.25,15.25,0,0,1,35,20.93a18.21,18.21,0,0,1,8.86-2.08,18.94,18.94,0,0,1,8.31,1.74,13.49,13.49,0,0,1,5.56,4.72,11.62,11.62,0,0,1,2,6.5,10.14,10.14,0,0,1-1.12,4.84,15,15,0,0,1-2.66,3.58c-1,1-2.88,2.7-5.54,5.09a24.42,24.42,0,0,0-1.77,1.77,7.28,7.28,0,0,0-1,1.39,7.43,7.43,0,0,0-.5,1.27c-.12.42-.3,1.16-.53,2.22-.42,2.25-1.7,3.38-3.87,3.38a4,4,0,0,1-2.84-1.1A4.34,4.34,0,0,1,38.68,51a11.51,11.51,0,0,1,3.08-8.24,51.82,51.82,0,0,1,3.77-3.58c1.38-1.22,2.38-2.13,3-2.75a9,9,0,0,0,1.56-2.06,5,5,0,0,0,.63-2.47,5.72,5.72,0,0,0-1.93-4.38,7.06,7.06,0,0,0-5-1.79c-2.38,0-4.14.61-5.26,1.81a14.29,14.29,0,0,0-2.86,5.31c-.73,2.44-2.13,3.66-4.18,3.66a4.08,4.08,0,0,1-3.07-1.28A3.92,3.92,0,0,1,27.19,32.43ZM43,68a5.1,5.1,0,0,1-3.46-1.28,4.5,4.5,0,0,1-1.47-3.59,4.62,4.62,0,0,1,1.42-3.44A4.86,4.86,0,0,1,43,58.3a4.78,4.78,0,0,1,4.84,4.84,4.53,4.53,0,0,1-1.46,3.57A4.93,4.93,0,0,1,43,68Z"/></g></g></g></g></svg>