<svg xmlns="http://www.w3.org/2000/svg" viewBox="0 0 53 53"><defs><style>.bebdb5a3-5c7c-439c-91d2-c7dad30fe9ff{fill:#a80000;}</style></defs><title>Asset 5</title><g id="4618197a-41b4-4198-a8cc-90aa96b2921c" data-name="Layer 2"><g id="9a9fca87-e160-4b0b-aa8b-5d5d95ccc867" data-name="Layer 1"><g id="371eb9de-28bd-4678-acda-b1c010e45cfe" data-name="Layer0 4 FILL"><path class="bebdb5a3-5c7c-439c-91d2-c7dad30fe9ff" d="M23.9,38.85V44.5h5.65V38.85H23.9m5.9-21.1V10.8H23.65v6.95l1.5,15H28.3Z"/></g><g id="e7f970f8-706a-45cf-8f37-97fee37a5846" data-name="Layer0 5 FILL"><path class="bebdb5a3-5c7c-439c-91d2-c7dad30fe9ff" d="M53,26.5A25.565,25.565,0,0,0,45.2,7.75,25.483,25.483,0,0,0,26.5,0,25.648,25.648,0,0,0,7.75,7.75,25.648,25.648,0,0,0,0,26.5,25.483,25.483,0,0,0,7.75,45.2,25.565,25.565,0,0,0,26.5,53a25.483,25.483,0,0,0,18.7-7.75l.05-.05A25.483,25.483,0,0,0,53,26.5M26.5,3A22.607,22.607,0,0,1,43.1,9.85,22.689,22.689,0,0,1,50,26.5a22.631,22.631,0,0,1-6.9,16.6A22.631,22.631,0,0,1,26.5,50,22.689,22.689,0,0,1,9.85,43.1,22.607,22.607,0,0,1,3,26.5,22.714,22.714,0,0,1,9.85,9.9l.05-.05A22.714,22.714,0,0,1,26.5,3Z"/></g></g></g></svg>