<svg xmlns="http://www.w3.org/2000/svg" viewBox="0 0 34.95 25.75"><defs><style>.bdda3940-94a4-4baa-954d-c66f1b2db2d8{fill:#00a651;}</style></defs><title>Asset 1</title><g id="167292a5-a136-4afc-ac67-1eb9b9dbda43" data-name="Layer 2"><g id="0b8586c4-726b-466c-934d-f26fec46efc0" data-name="Layer 1"><g id="ead8ff06-c681-429d-9f4f-058194595337" data-name="Layer0 0 FILL"><path class="bdda3940-94a4-4baa-954d-c66f1b2db2d8" d="M31.95,0a2.773,2.773,0,0,0-2.1.9L12,18.55l-6.9-6.7A3.022,3.022,0,0,0,2.95,11a2.945,2.945,0,0,0-2.1.95A2.853,2.853,0,0,0,0,14.05a2.945,2.945,0,0,0,.95,2.1L10,24.9a2.853,2.853,0,0,0,2.1.85,2.962,2.962,0,0,0,2.1-.85L34.1,5.15A3.022,3.022,0,0,0,34.95,3,2.853,2.853,0,0,0,34.1.9,2.934,2.934,0,0,0,31.95,0Z"/></g></g></g></svg>