<svg xmlns="http://www.w3.org/2000/svg" viewBox="0 0 153.15 244.33"><defs><style>.cls-1{opacity:0.45;}</style></defs><title>phoenix</title><g id="Layer_2" data-name="Layer 2"><g id="Layer_1-2" data-name="Layer 1"><g class="cls-1"><path d="M21.4,133.84s-1.56-10.9,7-12.45,20.23,2.33,25.68-10.9c0,0,.78,8.56-7,12.45,0,0,7,3.89,14-2.33,0,0-.78,6.22-5.44,9.34,0,0,24.12-1.56,12.45-28.79S19.84,72.37,21.4,15.56c0,0,0,29.57,20.23,41.24S65,74.7,65,74.7s1.56-10.12-13.22-28S48.63,0,48.63,0,42.41,28,58,40.46,77.42,73.92,77.42,73.92s2.34-14.78-1.55-26.45S70.42,20.23,83.65,0c0,0-7.78,22.57-1.56,37.35s10.12,34.24,7,41.24c0,0,6.22-5.45,3.89-23.34s1.55-35,21.78-42c0,0-17.12,11.67-14,31.9s5.44,31.9-6.23,45.13c0,0,9.34-2.33,11.67-14.78S114,54.47,119.44,49s10.9-12.45,8.56-23.34c0,0,5.45,10.11-2.33,23.34s-6.23,20.23-7,27.24-5.44,17.89-14,21c0,0,9.34,5.44,15.56-7s7-24.9,19.45-32.68c0,0-12.45,14-12.45,28.79s-10.11,22.57-22.56,25.68a31.63,31.63,0,0,0,20.23-3.11s-7.78,10.11-28.79,12.45c0,0,4.67,3.11,14,1.55,0,0-14.78,10.12-23.34,10.12,0,0,6.23,3.89,16.34,3.89,0,0-3.89,5.45-15.56,6.22,0,0,66.92,17.12,42.8,78.6,0,0,8.56-31.91-9.34-49,0,0,29.57,59.92-43.58,71.59,0,0,31.13-7,35-33.46,0,0-6.23,39.69-77,25.68,0,0,34.24,5.45,56.81-14.78,0,0-83.65,34.62-92.21-40.08,0,0,10.12,35,45.91,37.35,0,0,.78,7.78,14.78,6.23S91,218.26,98,199.59c0,0-18.67,25.68-45.91,19.45,0,0,6.23-3.11,8.56-6.22,0,0-35.79-1.56-45.91-25.68,0,0,17.9,22.56,60.7,18.67l-3.11,4.67s12.45,0,23.34-19.45-7-32.68-15.56-33.46-21.79.78-30.35-11.67S28.79,121.78,21.4,133.84Z"/><path d="M35.79,187.14S54.47,198,70,194.14s9.34-19.45,1.56-18.67c0,0,6.22,5.44-.78,12.45S35,185.58,24.9,177s-51.36-53.69,5.45-111.27c0,0-54.47,68.48,23.34,108.94,0,0,3.89-11.67,18.68-12.45s24.9,20.23,11.67,31.9S52.13,200.37,35.79,187.14Z"/><path d="M33.46,68.86l6.22,7s-21.78,11.67-21,51.35C18.67,127.22,7,95.32,33.46,68.86Z"/><path d="M132.28,82.09,130,96.1s10.89,27.23,0,49C130,145.12,151,125.67,132.28,82.09Z"/><path d="M134.62,76.65s29.56,41.24-9.34,84l10.11,14S175.86,128.78,134.62,76.65Z"/></g></g></g></svg>