<svg xmlns="http://www.w3.org/2000/svg" viewBox="0 0 494.87 475.03"><defs><style>.cls-1{fill:#0f0f0f;}.cls-1,.cls-2{opacity:0.45;}</style></defs><title>Asset 2</title><g id="Layer_2" data-name="Layer 2"><g id="Layer_1-2" data-name="Layer 1"><path id="_Path_" data-name="&lt;Path&gt;" class="cls-1" d="M244.32,55.77s-19.43-.44-26.26,8.84c0,0-4.1,5.32-4.45,9.9,0,0,29.06,12.07,32.86,33.56,0,0,2.74-4,.42-15.28-2.83-10.2,2-15.75,7-18.71,0,0-8.9-1.12-10.83,1.27-2.4,2.13-3.78,3.44-3.78,3.44l-1.07-.57s-.5-5.59,1.12-7.49,9.51-5.26,9.51-5.26-7.79-1.93-12.67.94a23.93,23.93,0,0,0-4.9,2.89C232.05,69,228.35,60.45,244.32,55.77Z"/><path id="_Path_2" data-name="&lt;Path&gt;" class="cls-1" d="M277.08,99.37l-7-2.19s-5.93-.27-8.07,1.29c0,0,4.83,11.88,4.54,12.41-.56,1.06,1.11-7.54,4.32-9.91A7.56,7.56,0,0,1,277.08,99.37Z"/><path id="_Path_3" data-name="&lt;Path&gt;" class="cls-1" d="M247.31,18.8S219.82,32.73,220,56.09c0,0,19.49-25,68.8-2.79,0,0,55,36.22,27.51,77-9.39,14.53-36.9,19.66-36.9,19.66l-.75,1.88-4.32,4.88s36-4,49.93-24c9.29-16,6.2-20.12,6.2-20.12s8.51,8.5-3.81,30.54c-15.44,19.33-54.27,24.43-54.27,24.43l2.34,7.47s16.66,4.39,22.37,12.43c0,0,46.32-1.43,66.74-29,11.63-17.26,9-24.07,9-24.07a2.66,2.66,0,0,1,3.86-.69c2.29,1.65,7.95,3.88,7,10.75,0,0,8.38-6.13.48-32.56,2.23-7.1,9.94.34,9.94.34s5.18,4.94,3.93,8.09c0,0,6.11-3.42-5.06-21.66L378.82,82.19s-3.87-8.07,2.75-8.32,15.37,7.53,15.37,7.53,3-9.07-27.31-23.83c0,0-17.18-4.63-19.76-12.94s11.49-3.45,18.7.83c0,0-5.46-10.2-23.74-16.58,0,0-18.92-3.07-24.57-3.87s-12.05-4-13.87-6.87c-.28-2.37,6.37-4.07,6.37-4.07s-19.5-6.3-39.67-3.35l-14.54,3.81s34.05,3.89,64.89,23.39c31.12,20.26,46.51,56.14,46.62,64.88,0,0-19.9-50.08-66.88-70.69C282.11,22.34,247.31,18.8,247.31,18.8Z"/><path id="_Compound_Path_" data-name="&lt;Compound Path&gt;" class="cls-1" d="M286.23,207.75c-1.13-1.95-8.69-3.64-8.69-3.64s-1.09-2,2.29-3.06c5.3-.84,7.22,2.27,7.22,2.27s3.1-2-1.09-4.75c-7-4.19-16.52,2.17-16.52,2.17l-7-2.8s-.81-8.08-4.45-13.38c-2.18-3.9-10.87-6.11-10.87-6.11s-2.23-6.67-2.5-10.32,5.3-3.56,5.3-3.56,10.08,3.58,12.31,2c7.33-2,5.95-15.81,5.95-15.81l-5.52-27.89-3.39,16.43s0,9.74-4.81,15-16.81,5.52-16.81,5.52,13.44-8.61,10.43-24.78c-6.08-25.32-27.87-40.39-33.19-43.7-5-3.94-11.68-14.26-11.68-14.26S196.55,64,207,39.24C214.58,15.93,263.07.49,263.07.49s-28-4.29-66.64,12.61-43,65.49-43,65.49S149,66.65,139.18,59.67c-32.1-14-53.38-3.76-53.38-3.76,34.67,2.06,39.93,24.84,39.93,24.84a48.3,48.3,0,0,0-35-2.86,141.81,141.81,0,0,1,23.75,7c12.34,4.76,14.24,14.78,14.24,14.78-8.63-5.05-26,.19-28.54,1,2.81,0,19.83,6.47,23.76,8.41s13.1,14.22,13.1,14.22c13.22-22,38.35-10.76,38.35-10.76s-17.06-.87-28.56,9.37c-11,9.15-1.48,29.21-1.48,29.21-16.77-5.65-29.3-27.87-29.3-27.87,10.82,31.2,32.07,34.82,32.07,34.82l6.1,8.7s-14.78-1.18-35.14-20.44c-20.08-19.79-33-15.08-33-15.08s12.59-1.36,29.05,17.32c18.94,22,45.8,27.08,45.8,27.08,4.74,3.09,1.35,8.33.21,13.35-8.44,12.51-9,27.48-9,27.48,4.11,36.2,53.58,46.34,53.58,46.34-23.55,20.25-54.83-3.75-54.83-3.75,12.54,19.5,40.26,17.35,40.26,17.35-22.67,13-50.67,3.22-50.67,3.22s21.52,10.06,44.51,4.83,32.48-21.37,32.48-21.37c11.5-3.22,17.36-9.35,17.36-9.35l-15.37,2.74c3.95-18.9-10.28-24-23.38-38.19-11.69-15.59-.5-25.33-.5-25.33-3.66,1.7-20.77,11.94,1.26,32.07S211.39,256,211.39,256a34.4,34.4,0,0,1-24.31-10.09s7.56-1.09,10.09-3.28c2.79-2.84,3.91-7.83,3.91-7.83L195.24,238c-8.44,4.21-22.68-.84-25.71-12.83-3.32-11.4-.27-14.73,7.64-34.46,4.54-17.23-12.78-35.65-12.78-35.65,16-1.07,34.7,11.83,41.64,22.9s26.77,23.22,26.77,23.22,1.13,3.3-2,8c-3.62,4.4-13.71,9.14-13.71,9.14,16.78,0,23.52-5,23.52-5l5-4.38c14,8.3,24.88,8.92,24.88,8.92-1.71,8.88-15.45,16.64-15.45,16.64,10.68-.25,21.89-7.16,21.89-7.16l5.3-7.78C289.83,215.85,287.32,209.71,286.23,207.75Zm-81.5-67.22c-4.21-8.39-1.94-14.25-1.94-14.25s15.33,8.44,19,23.44C222.32,150,208.9,148.85,204.74,140.52Zm33.14,47.9c-3.62.25-4.44-3.65-4.44-3.65s.29-7.47,10.06-4.65c10.09,3.62,10.3,11.4,10.3,11.4C243.21,183.44,242.36,187.9,237.88,188.42Z"/><path id="_Path_4" data-name="&lt;Path&gt;" class="cls-1" d="M255.77,475S90,455.85,75.53,333.49c0,0,1.32,10.56,26.93,16.43,0,0-40.07-32.66,38.34-118.31-3.09-3.67,1.47-42.9,2.52-45.27,0,0-111.81,76.63-81.19,182.16-50.66-116.78,71.53-186.21,71.53-186.21L132,167.75S88.1,171.38,40,235.8c0,0,16.59-39.45,55-61.6,0,0,15.89-7.41,17.72-10.07,0,0,7.1-9.36-30.93-18,0,0-4.26-17,.81-22.88,0,0,12.09-3.47,14.22-7.37,0,0-.5-13.16-16-15.6,0,0,2.73,4.94,2.78,8.44,0,0,5,5.87-9.43,10.56,0,0-6.67,15.11-4.44,20.32,0,0-10.19-5.23-6.68-13.58,0,0,9-16.32-15.85-17.8l-5.57,6.2a7.1,7.1,0,0,1,8,1.74s7.49,2,3.29,9.84c0,0-10.71-1-6.15,10.86,0,0,5.69,8.58,5.34,12,0,0-1.85,10.44-14.8,12,0,0-16.25,18.66-19.26,26.74,0,0-3.69,9.17-17.21,5.85,0,0,16.9,11,29.74-3.58,0,0,3.36-15.38,9.39-18,0,0,16.61-6.85,21.08-15.86,0,0,8.18-.85,9.48,2.91l13.8,6S-10.61,231.61,1,305.77c0,0,3.75,82,67.4,124.12a61.3,61.3,0,0,1,0-28.92S97.45,466.58,255.77,475Z"/><path class="cls-2" d="M226.25,309.61c12.93-5.71,17-5.33,17-5.33l-10.44-1.72c.85,0,2.81-2.8,16.67-6,0,0-51.53,3.18-86,38.72l6.63-.57-20.6,16.37s61.62-39,72.25-42.54l-43.44,27s3.46,1.57,3.5,3.28l-22.38,13.85,50.46-26S213.48,315.63,226.25,309.61Z"/><path class="cls-2" d="M210.52,329.35l17.35-11.13L183,342.49l-.19,4.47-17.26,8.9,47.56-20.11S209.23,331.78,210.52,329.35Z"/><path class="cls-2" d="M291.86,310a22,22,0,0,1-4.28,9.68s2.19-16.76-5.69-23.33c0,0,5.94,20.6-15,49.21,0,0,4.57-1.16,14-14.06,0,0-.16,10.91-25.92,31.33l-11.24,5.62s3.76-21.06-13-27.18c0,0-9.25-1.92-12.31-1.14,0,0-3.82-2.29-3.84-3.12l13.58-6.92-45,20-.71,4.3a32.36,32.36,0,0,1,17.17-6.7c12.74-1.26,32.9,5.59,38.06,23.15,0,0,2.21,10.5,1.68,15.12l24.07-25.15,12.92-11.32S297.74,328.93,291.86,310Z"/><path class="cls-2" d="M241.61,337.25l14.29-13.58-4.35,1.95c.17.32,9.35-19.64-3.65-26.75C247.9,298.87,254.8,314.7,241.61,337.25Z"/><path class="cls-2" d="M286.48,297.92s15.38,13.67,8.25,37.23c.22-3.34.4-6,.48-6.51,0,0-9.51,14.74-18.14,21.88l16.38,3.29c.11.21.7-9.62,1.18-17.08,1.06-1.31,3.08-3.64,4.32-4.12C299,332.61,304,310.12,286.48,297.92Z"/><path class="cls-2" d="M494.57,163.42s-6.15,20.85-17.69,29.31c0,0,17.71-95.56-79.11-137,0,0,79.28,75.39,26.29,153.1,0,0,20.1,1.66,30.83-11.77A263.65,263.65,0,0,0,438.32,227c-2.26,3.44-18.49,27.06-47.1,40.08l23.58-28.9s-45.47,16.34-105.73,13.23c0,0-4.45-11.44-8.85-15.56s-21.76,1.37-21.76,1.37-10.07,20.61-31.7,26.25c0,0-4.57,1.16-15,10.7a142.78,142.78,0,0,1-27.91,11.64c-19.55,7.1-29,15.23-50.58,38.58,0,0-34.13,25-40.71,32s-3.42,10.49,1.3,14.43c0,0,5,22,10,25.75s17.5,3.54,23.08,1.82a66.54,66.54,0,0,0,10.59-4.43s10.26,6.17,19.88,3.13l-1.62-7.8,1.67-.9s8.78,2.61,15,.55l-1.72-5.59s11.67,2.37,12.43,4.57c1.26,2.34,4.82,12.12,4,13.84s-6.85,4.13-10,1.5-9.84-9.39-9.84-9.39-4,1.33-3.2,6.9l.89,5.62-2.54.92s-7.2-6.91-7.54-6.72-3.66,2.84-3,6.39c.79,3.88,1.45,8.29,1.45,8.29s-7.35,15.24-6.58,18.27c.1,3.42,7,12.22,26,12.82l4.16,2.08s5.7,2.52,13.8-.11l-1.36-4.92,5.78-.51-1.81-3.34s27.39-17.42,30.61-17.87,10.86-1.54,10.86-1.54L249,417.26s21-3.56,32.15-7c38-12.31,50.93-17.14,66.21-18.48,1.7-.06,1.91,33.16,1.91,33.16s9.4-9.86,20.42-22.28c0,0,5.46,21.29-8.23,36,0,0,46.07-32.65,61.64-103.47A88.75,88.75,0,0,0,436.76,362s-9.42-55.8,30-103.67C484.24,237.09,497,188.25,494.57,163.42ZM154.34,331.17s-21,14-23.6,18.8l-6.89,2.46C124.17,352.26,146.22,333,154.34,331.17Zm-16.54,58.31C128,388.24,123.08,371,123.08,371l3.24.41c2.16,8.78,11.77,16.14,11.77,16.14Zm40.69-16.83S180,381.8,183,384.08a1.78,1.78,0,0,1-2.18.78c-1.73-.81-9.41-6.19-9.8-7.71l1,4.23-2.9-.58.07,2.55-3.09-.91s2,9.31,3.73,10.09l-.49.7s-7.72-1.46-10.31-7.87c0,0,15.49-11.39,23.82-22.38,0,0,4.88-2.21,7.64-1.09C190.1,362.06,180.59,368.49,178.5,372.64Zm22.57,2.53c13.16,1.11,16.37,15.83,16.37,15.83l-2.79,3.67C213.93,382.93,201.07,375.17,201.07,375.17Zm-25.9,31.33,5.4,3.58c1-.54,7.07-2.1,7.07-2.1a10.49,10.49,0,0,1-.58-7.48l6.69,6.76,7,.12s-17.61,3.45-18.8,3.67c-1.38-.12-4,3.87-4,3.87C172.12,407.26,175.17,406.5,175.17,406.5Zm187.48-57.65L353,339s5.38,14,.24,23.66c0,0-10.56-21.14-27.58-26.2,0,0,7.21,28.57,2.5,46.26,0,0-4.68-23.87-15.68-32.21l.39,12.75s-10.43-1.69-16.13,1.39c0,0-8,9.95-16.75,14.66,0,0,16.32-12.27,20.24-28.23,0,0-8.29,12.7-22.72,19.64,0,0,2.61,1.6,4.62.52,0,0-4.78,4.76-19,7.26s-25.21,16.66-33.17,28.33l-4.71,7.3a5.85,5.85,0,0,0,4.88,3.42s-2.6,4-11.85,2.93c0,0-1.58,3.47-1.56,4.32,0,0-3.47-1.6-3.82-2.25s-16,11.23-35.73,6.76C173,420.21,184.75,413,184.75,413s14.86,1.09,26.18-6.78c5.66-4.78,10.49-13.45,10.49-13.45s7.41-7.92,9.44-8.15c0,0,3.69-12.41-6.61-20.24-10-8-18.46-12.52-35.56-8.92l-8.58,3.37L162.3,377.92s-13.41,6.41-17.14,6.72c-4.08.45-10.52-9-10.52-9s-2-8.44-2.17-8.8,5.12-16.16,5.12-16.16l46.94-34.91,19.18-12.56s-12.44.23-14.1,1.13-9,5.76-11.21,12.12l-12.44,5s15-17.17,23.83-21.57c5.19-3.2,35.53-13.56,35.53-13.56l15.85-.33-6.09-4.07,8.66-5.56s3.66-2.85,4.66-3.39,21.75-7.85,23.88-10.3c0,0,.55,6.63-5.14,15.33,0,0,12.48-9.77,13-19.19l17-12.62s2-.22,1.89.27.22,6.81-7.82,21.55c-10.1,19.77-27.7,24.06-29.71,25.14,0,0,10.26,6.16,10.83,13.63,0,0,2.1-4.15.09-13.44,0,0,11.79-4.65,18.55-11.35a106.38,106.38,0,0,0,12.61-15.9l9.34-1.14s4.13,17.25-4,34.2c0,0,15.76-18.06,18.66-34.34l16.28,2.88S337,299,319,317c0,0,29.6-17.3,41.06-42.57l7.11,3.54s-2.51,28.19-19.55,49.52a59.15,59.15,0,0,0,19.88-17.67S367.61,333.18,362.65,348.86Zm-178-35.37s.74-3.44,2.58-4.84a4.53,4.53,0,0,1,4.59-.33Z"/></g></g></svg>