<?xml version="1.0" encoding="utf-8"?>
<!-- Generator: Adobe Illustrator 21.0.0, SVG Export Plug-In . SVG Version: 6.00 Build 0)  -->
<svg version="1.0" id="Layer_1" xmlns="http://www.w3.org/2000/svg" xmlns:xlink="http://www.w3.org/1999/xlink" x="0px" y="0px"
	 viewBox="0 0 500 500" style="enable-background:new 0 0 500 500;" xml:space="preserve">
<style type="text/css">
	.st0{opacity:0.45;}
	.st1{opacity:0.45;fill:#97664B;}
	.st2{opacity:0.45;fill:none;}
</style>
<g id="XMLID_13_" class="st0">
	<g id="XMLID_18_">
		<path id="XMLID_32_" d="M248.5,165.6c0,0-64.3-29.8-129.1-9.4l8.4,3.6l-35.5,6.3c0,0,99.8-6.8,114.9-4.2l-70,4.2
			c0,0,3.1,4.2,2.1,6.2l-36,2.1l77.8,1.6c0,0,11.5-11,30.8-9.9c19.3,1.6,24,4.7,24,4.7l-11.5-8.9
			C225.5,162.5,229.6,160.4,248.5,165.6z"/>
		<path id="XMLID_30_" d="M208.2,177.6h-70l-3.1,5.3l-26.6-0.5l70.5,6.8c0,0-2.1-7.3,1.1-9.4L208.2,177.6z"/>
		<path id="XMLID_29_" d="M200.9,192.3l-67.4-5.2l-3.7,4.7c0,0,12.5-2.6,25.1,3.1c16.2,6.8,36.1,28.2,30.8,52.8
			c0,0-4.2,14.1-7.8,19.3l45.4-14.6l23-5.2c0,0,39.2-11,44.4-37.6c0,0-3.6,5.2-11.5,8.9c0,0,13.6-18.8,8.4-31.9
			c0,0-6.3,28.7-50.2,49.6c0,0,6.3,1.6,26.1-7.8c0,0-7.3,13.1-51.7,20.9l-17.2-0.6c0,0,18.3-23,2.1-41.3c0,0-9.9-8.4-14.1-9.4
			c0,0-3.1-5.3-2.6-6.3L200.9,192.3z"/>
		<path id="XMLID_27_" d="M245,167.3c0,0-2,23.6-32.6,42.2l26.1-7.1L232,202C232,202.5,256.1,184.4,245,167.3z"/>
		<path id="XMLID_25_" d="M283.2,184.4c0,0,8,29.1-21.1,51.2c0,0,7-2.5,9.5-2C271.6,233.6,294.2,211.5,283.2,184.4z"/>
		<path id="XMLID_23_" d="M282.7,234.1c0,0-21.1,11.6-36.2,14.6l17.6,14.7C264.1,263.8,281.2,236.1,282.7,234.1z"/>
		<path id="XMLID_21_" d="M460.6,204.8c0,0-38.7-28.7-110.8-54.9c0,0,2.1-16.7-0.5-24.5c-2.6-7.8-27.2-12.6-27.2-12.6
			s-25.6,18.3-55.4,11c0,0-6.3-1.6-25.1,3.1c0,0-19.3,0.5-41.3-4.2c-28.2-4.2-44.9-0.6-86.2,13.6c0,0-57.5,7.8-70,12
			c-12.5,4.2-11,10.4-7.9,18.3c0,0-8.4,29.8-4.7,37.6c3.7,7.9,18.8,15.7,26.7,17.3c7.8,1.6,15.7,1.6,15.7,1.6s8.4,14.1,21.9,16.7
			l3.1-10.5h2.6c0,0,8.9,8.9,17.8,10.5l1.6-7.9c0,0,12.5,10.5,12,13.6c0,3.6-2.1,17.8-4.2,19.3c-2.1,1.5-11,0.5-13.1-4.7
			c-2.1-5.2-5.8-17.8-5.8-17.8s-5.7-1-8.4,6.2C99,256,99,256,99,256l-3.7-0.6c0,0-4.2-13-4.7-13c-0.5,0-6.3,1-7.8,5.8
			c-1.6,5.2-3.7,11-3.7,11s-18.8,13.6-19.9,17.8c-2.1,4.2,0.5,19.3,23,32.4l3.7,5.2c0,0,5.2,6.8,16.7,8.9l1.6-6.8l7.3,3.2v-5.2
			c0,0,44.4-3.2,48.6-1.6c4.2,1.6,14.1,5.2,14.1,5.2l-5.2-7.3c0,0,27.7,9.4,43.4,12.5c53.8,9.9,72.6,12.6,92,20.9
			c2.1,1-19.3,41.3-19.3,41.3s17.8-5.8,39.2-13.6c0,0-7.3,29.3-33.4,38.1c0,0,140.5-33.4,156.2-153.1c0,0,23.5,20.4,16.7,50.7
			c0,0,29.2-70-23.5-81.5L460.6,204.8z M111,145.3c0,0-34.5,3.1-40.8,7.3l-9.9-1.5C60.9,151,100.1,142.1,111,145.3z M53,204.8
			c-11-7.9-5.7-31.9-5.7-31.9l3.6,2.6c-3.1,12,3.7,27.1,3.7,27.1L53,204.8z M113.1,211.1c0,0-4.2,12-2.1,16.7c0,0-1.6,1.1-3.1-0.5
			c-1.6-2.1-7.3-13.6-6.8-15.7l-1.6,5.8l-3.1-2.6l-1.6,3.1l-3.1-3.1c0,0-3.7,12.5-2.1,14.6l-1.1,0.5c0,0-8.4-6.8-7.3-16.2
			c0,0,26.1-3.6,43.4-11.5c0,0,7.3,0.5,9.9,3.7C134,205.9,118.4,207.4,113.1,211.1z M87,249.8l4.2,7.8c1.6,0,9.9,2.1,9.9,2.1
			c0.5-6.3,4.2-9.4,4.2-9.4l3.7,12.5l8.4,4.7c0,0-23.5-7.3-25.1-7.8c-1.6-1-7.3,2.1-7.3,2.1C82.8,248.7,87,249.8,87,249.8z
			 M382.2,258.6c0,0-15.1,28.2-31.3,43.9l-5.2-18.3c0,0-2.6,20.4-15.2,28.7c0,0,1.1-32.4-16.2-49.6c0,0-9.9,39.2-27.2,57.4
			c0,0,9.9-31.9,2.1-49.1l-7.8,15.6c0,0-11.5-8.8-20.4-8.8c0,0-16.2,6.8-29.8,6.8c0,0,27.7-4.2,42.8-20.9c0,0-18.3,9.9-40.2,8.9
			c0,0,2.1,3.6,5.2,3.6c0,0-8.9,2.6-27.7-3.6c-18.8-6.3-41.3,3.6-58.5,12.5l-10.5,5.7c0,0-0.5,4.7,3.7,7.3c0,0-5.8,3.2-16.2-4.2
			c0,0-4.2,3.2-4.7,4.2c0,0-3.1-4.2-3.1-5.2c0-1-26.6,3.1-47.5-15.2c1-13.6,19.8-14.7,19.8-14.7s17.2,11,36,8.9
			c9.9-2.1,21.4-9.4,21.4-9.4s14.1-4.7,16.7-3.7c0,0,12.6-12.6,5.2-28.7c-6.8-16.2-14.1-27.1-37.1-34l-12.6-1.5l-34,11.4
			c0,0-20.4-1-25.1-3.1c-5.2-2.1-6.8-17.8-6.8-17.8s3.1-11.5,3.1-12c0-0.5,16.7-16.2,16.7-16.2l79.4-11.5l31.3-2.6
			c0,0-15.2-7.8-17.8-7.8c-2.6,0-14.6,1.1-21.4,7.3l-18.3-2.1c0,0,29.3-11,42.8-10.5c8.4-0.5,51.7,6.8,51.7,6.8l19.3,9.9l-4.7-8.9
			l14.1-1.1c0,0,6.3-1,7.8-1s31.4,4.7,35.5,3.2c0,0-3.7,8.4-16.2,15.2c0,0,21.4-3.6,28.2-14.7l28.7-4.2c0,0,2.6,1.1,2.1,1.6
			c-0.5,0.6-4.2,8.4-23.5,20.9c-25.1,17.3-49.1,11-52.2,11c0,0,8.4,14.1,4.2,23.5c0,0,5.2-3.6,8.9-16.2c0,0,17.2,2.1,29.8-1.6
			c13.6-4.2,25.6-11,25.6-11l12,4.7c0,0-6.3,23.5-27.1,38.7c0,0,30.8-11.5,44.9-29.3l17.8,14.1c0,0-28.7,33.4-62.2,43.4
			c0,0,47-1.6,77.3-24.6l6.3,8.9c0,0-21.4,32.4-55.9,47C344.1,267,363.9,268,382.2,258.6z M138.7,228.9c15.1,9.9,9.4,29.8,9.4,29.8
			l-5.8,2.6C149.2,246.6,138.7,228.9,138.7,228.9z M159.1,143.7c0,0,3.1-3.7,6.3-4.2c3.7-0.6,5.8,2.6,5.8,2.6L159.1,143.7z"/>
	</g>
	<path id="XMLID_17_" d="M14,199.6c0,0,3.9,34.1,26.4,56.7l-22-7.9c0,0-5.4,185.5,235.6,177.4l8,6.9c0,0-70.2,16.9-102.4,2.9
		c0,0,43.7,30.3,140.6,11c0,0,67.4,16,74.4,16c0,0-126.8,67.9-241.3,1.7C0.3,394.7-4.6,239.3,14,199.6z"/>
	<path id="XMLID_34_" d="M40.5,128.3c0,0,20.1-11.3,43.5-12.5c0,0,15.1-42.7,53.6-56.7c0,0-34.3,32.5-39,53.1l9.9-2.1
		c0,0,80.6-123.8,235.6-56.2l16.6,8.3L343,72.8c0,0,65.4,0.6,101.7,59l-66.7-46.2l-2.2,5.3c0,0,84.4,43.9,107.9,133.7
		c19.5,84.4-25,134.2-25,134.2l-10.2-25.5c0,0-4.6,54.6-25.3,87.4c0,0,127.8-95.9,43.9-280.2c-50.3-84.6-121.2-112-121.2-112
		l11.8,16C338.9,35.2,177.8-61,40.5,128.3z"/>
</g>
<path class="st1" d="M567.3,258.4"/>
<rect id="_x3C_Slice_x3E__1_" x="-62.7" y="-59" class="st2" width="599.3" height="599.3"/>
</svg>
