<?xml version="1.0" encoding="utf-8"?>
<!-- Generator: Adobe Illustrator 21.0.0, SVG Export Plug-In . SVG Version: 6.00 Build 0)  -->
<svg version="1.0" id="Layer_1" xmlns="http://www.w3.org/2000/svg" xmlns:xlink="http://www.w3.org/1999/xlink" x="0px" y="0px"
	 viewBox="0 0 500 500" style="enable-background:new 0 0 500 500;" xml:space="preserve">
<style type="text/css">
	.st0{opacity:0.45;}
	.st1{opacity:0.45;fill:#97664B;}
	.st2{opacity:0.45;fill:none;}
</style>
<g id="XMLID_2_" class="st0">
	<path id="XMLID_36_" d="M236.2,77.4c0,0-16.5,6.1-19.2,16.3c0,0-1.7,5.9-0.4,9.9c0,0,28.5,0.5,39,17.5c0,0,1-4.3-4.8-13.1
		c-5.8-7.7-3.6-14-0.4-18.2c0,0-7.9,2-8.7,4.7c-1.3,2.6-2,4.2-2,4.2l-1.1-0.1c0,0-2.3-4.6-1.6-6.7c0.7-2.2,6.2-7.6,6.2-7.6
		s-7.2,1-10.3,5c0,0-2.5,2.5-3.1,4.1C230.3,92.7,224.3,86.7,236.2,77.4z"/>
	<path id="XMLID_15_" d="M278.5,103.4l-6.6,0.5c0,0-5.1,1.8-6.4,3.8c0,0,8,8.5,8,9c-0.1,1.1-1.6-6.8,0.3-9.8
		C275.7,103.7,278.5,103.4,278.5,103.4z"/>
	<path id="XMLID_11_" d="M226.3,45.1c0,0-18.5,21-10.5,40.7c0,0,8-27.7,57-25.4c0,0,58.6,12.3,49.1,56.1c-3,15.5-24.5,29-24.5,29
		v1.8l-2,5.6c0,0,29-15.5,34-37c2.5-16.6-1.5-19.1-1.5-19.1s10,4.4,7.1,27.1c-6.5,21.5-37.5,38.8-37.5,38.8l4.5,5.5
		c0,0,15.5-1.8,23,3.1c0,0,38.5-16.7,46.5-46.9c4-18.5-0.5-23.4-0.5-23.4s0.5-2.5,3-1.9c2.5,0.6,8,0.6,9.5,6.8c0,0,5-8-10.5-27.8
		c-0.5-6.8,8.5-3,8.5-3s6,2.5,6,5.5c0,0,4-4.9-11.5-16.7l-17.5-9.3c0,0-6-5.5-0.5-8c5.5-2.5,15.5,1.2,15.5,1.2s-0.5-8.7-31-11.1
		c0,0-16,1.8-21-4.4c-5-6.2,8.5-6.8,16-5.5c0,0-8-6.8-25.5-6.1c0,0-17,3.7-22,4.9c-5,1.2-11.5,0.6-14-1.2c-1-1.9,4-5.6,4-5.6
		s-18.5,1.2-34.5,10.4l-11,8.1c0,0,30-8.1,62.5-1.9c33,6.8,58.1,32,61.1,39.4c0,0-33.6-35.8-80.1-37.5
		C256.8,36.4,226.3,45.1,226.3,45.1z"/>
	<path id="XMLID_10_" d="M322.6,192.2c-1.6-1.3-8.5-0.2-8.5-0.2s-1.6-1.3,0.9-3.4c4.2-2.5,6.8-0.5,6.8-0.5s2-2.7-2.5-3.7
		c-7.3-1.2-13.2,7.4-13.2,7.4l-6.8,0c0,0-3.4-6.6-8.2-9.8c-3.2-2.6-11.2-1.5-11.2-1.5s-4.1-4.9-5.5-7.9c-1.5-3,3.3-4.8,3.3-4.8
		s9.7-0.3,11-2.5c5.5-4.1-0.3-15.4-0.3-15.4l-14-21.8l2.7,15.1c0,0,3.2,8.3,1,14.3c-2.2,6-12.3,10.3-12.3,10.3s8.5-11.8,0.5-24.5
		c-13.6-19.4-37.1-24.9-42.7-25.9c-5.5-1.7-14.6-8.2-14.6-8.2s-10-8.8-9.6-33.3c-1.4-22.3,34.2-51.6,34.2-51.6s-25,5.7-51.9,33
		c-26.9,27.2-14.2,69.9-14.2,69.9s-7.8-8.6-18.3-11.3c-31.8-1.1-46.3,14.7-46.3,14.7c29.9-9.8,42,7.7,42,7.7
		c-18.1-1.6-30.4,9.3-30.4,9.3s9.8-2,22.4-2c12-0.1,17,7.8,17,7.8c-9-1.4-21.8,8.8-23.7,10.4c2.3-0.9,18.9-1.2,22.8-0.8
		c4,0.4,15.8,7.7,15.8,7.7c3.8-23,28.7-21.9,28.7-21.9s-14.7,5-20.9,17.5c-6.1,11.4,8.6,25.2,8.6,25.2c-16,0.8-34-13.8-34-13.8
		c19.6,22.8,38.7,18.8,38.7,18.8l8.1,5.3c0,0-12.8,3.9-36.5-5.6c-23.6-10.1-32.9-1.8-32.9-1.8s10.2-5.4,30.3,5
		c23.4,12.3,47.7,7.6,47.7,7.6c5,1,4,6.6,4.7,11.2c-2.9,13.4,1.6,26.3,1.6,26.3c15.6,29.3,60.7,21.4,60.7,21.4
		c-13,25-47.5,15.2-47.5,15.2c17.1,12.3,39.7,1.2,39.7,1.2c-14.7,18.6-41.6,19.7-41.6,19.7s21.5,1.3,39.1-10.8
		c17.6-12.1,20.2-29,20.2-29c8.6-6.6,11.5-13.7,11.5-13.7l-12,7.5c-3-17.3-16.7-16.9-32.6-24.5c-15.1-9.3-8.9-21.3-8.9-21.3
		c-2.5,2.7-13.5,17.1,11.8,26.8c25.4,9.6,22.6,21.3,22.6,21.3c-13,5.1-23.9-0.4-23.9-0.4s6-3.5,7.4-6.2c1.4-3.3,0.7-7.9,0.7-7.9
		l-3.8,4.7c-5.7,6.4-19.4,6.9-26-2.3c-6.6-8.5-5.2-12.4-5.2-31.8c-2-16.1-22.7-25.9-22.7-25.9c13.1-6.2,33.2-1.6,42.8,5.5
		c9.6,7.1,30.3,10.7,30.3,10.7s2.1,2.4,1.1,7.5c-1.6,4.9-8.5,12.3-8.5,12.3c14.1-5.6,18.1-12.1,18.1-12.1l2.7-5.4
		c14.6,2.4,24-0.8,24-0.8c1.5,8.1-7.4,19.3-7.4,19.3c8.9-3.8,16-13.4,16-13.4l1.9-8.4C328.4,197.9,324.2,193.5,322.6,192.2z
		 M231.3,162.5C225,156.8,225,151,225,151s15.8,2,23.9,13.5C249.4,164.6,237.7,168.1,231.3,162.5z M275.4,192c-3,1.4-5-1.6-5-1.6
		s-2.3-6.4,6.9-7.3c9.7-0.3,12.5,6.2,12.5,6.2C278.2,186,279,190,275.4,192z"/>
	<g id="XMLID_3_">
		<path id="XMLID_8_" d="M376.7,37.3c0,0,8,20.2,11.2,28.6c0,0,90.3,94.7,84.2,164.9c0,0-17.6-88.2-75.8-116.7l-0.5,5.4
			c0,0,42.8,34.1,47.3,97.9c0,0,8.2,97.3-49.9,123.9c0,0-48.8-52.6-49.8-89.7c0,0-3.7-21.4,6.1-29.2c0,0,8-3.4,11.2-1l-0.9,5.4
			l5.6,0.5c0,0,13.6,4.9,7.5,12.2c0,0-13.6,14.6-5.6,22.4c8,7.8,22.5,11.2,35.1-4.4c0,0-14.5,4.4-18.7,2c0,0-0.9-6.4-3.7-6.4
			c0,0,22.5-23.9,5.2-25.8c0,0-1.9-13.6,1.9-17.5c3.7-3.4,36-18.5,21.5-34.1c0,0-5.6-6.4-4.7-8.3c0,0,1.4-11.7,12.6-10.2
			c0,0-7.5-6.4-13.6-6.4c0,0-13.6,5.4-5.2,18.5c0,0,8.9,15.6-4.7,26.3c0,0-8,1-8.9-6.3c0,0-2.8-12.2-12.2-11.2c0,0-8.9-9.3,0.5-10.7
			c0,0,5.6-5.4,12.2,0c0,0,0.5-7.3-14-10.2c0,0-19.6,5.8-12.2,21.9c0,0,17.3,8.8,16.8,16.5c0,0,4.2,13.2-3.7,13.7
			c0,0-12.6-12.7-31.8-8.3c0,0-45.4,66.8-10.3,118l38,62.2c0,0-128.3,71.2-176.8-2.5c0,0-38.4-56.3,25.6-106c0,0-7.1-0.9-11.5-16.9
			c0,0-84.2,63.7-50.5,136.7c0,0,15.1,36.4,68.7,62.5c0,0-113.9-22.8-97.9-109.6c0,0,14.4-68.1,73.1-107.1l3.6-13.4
			c0,0-47.7,20.4-85.7,104.3c0,0-13.1-40,24.3-74.1c0,0,15.9-12.2,17.3-15.6c0,0,5.6-12.2-38.8-12.7c0,0-8.9-18-4.7-25.8
			c0,0,12.6-6.8,14-11.7c0,0-3.8-14.6-21.5-13.6c0,0,4.2,4.9,5.2,8.8c0,0,7,5.4-8,14.1c0,0-3.7,18.5,0,23.8c0,0-12.6-3.4-10.8-13.6
			c0,0,6.1-20.5-22-16.1l-4.7,8.3c0,0,4.2-3.4,9.4,0c0,0,8.9,0.5,6.1,10.2c0,0-12.2,1.5-4.2,13.7c0,0,8.4,8.2,8.9,12.2
			c0,0,0.5,12.2-13.6,17c0,0-13.6,24.8-15,34.6c0,0-1.9,11.2-17.8,10.7c0,0,21.5,8.3,32.3-11.2c0,0,0-18.1,6.1-22.5
			c0,0,16.8-11.7,19.6-22.9c0,0,8.9-2.9,11.2,1l16.8,3.4c0,0-69.7,66.1-38.8,146.5c0,0,39.3,117.5,210.7,87.9
			C470,450.8,516.7,282.2,486.8,185.1C466.7,96.4,376.7,37.3,376.7,37.3z"/>
		<path id="XMLID_7_" d="M198.1,341.3c0,0-1,102.9,149.5,37.2l-11.9-12.2c0,0-15,19.5-45.5,21.7c0,0-5.7-11.7,1-17.3
			c0,0-22.2,13.9-40.9,11.7c0,0-10.3-7.8,7.8-16.1c0,0-34.7,6.1-40.9,4.4c0,0-10.3-14.4,19.7-16.1
			C267.4,352.4,207.9,359.1,198.1,341.3z"/>
		<path id="XMLID_5_" d="M383.4,311.2l12.3,16c0,0,36.7-27.6,35.9-71.6C431.6,255.2,415.5,296.2,383.4,311.2z"/>
		<path id="XMLID_4_" d="M169.3,37.3c0,0-12.3,21.5-14.5,28.6c0,0-51.6,16.5-75.6,59.1c0,0,50.9-44,71.8-44l-5.6,8.7
			c0,0-62.6,20.4-100.8,101C6.2,271.3,42,345.7,42,345.7l15.8-25.8c1.5,11.4-3.3,58.7,17.7,93c13.9,13.1-75.9-57.7-64.8-179
			C34.7,69.1,169.3,37.3,169.3,37.3z"/>
	</g>
</g>
<path class="st1" d="M120,465.6"/>
<rect id="_x3C_Slice_x3E_" x="-28.5" y="-28.6" class="st2" width="558.5" height="558.5"/>
</svg>
