<?xml version="1.0" standalone="no"?>
<!DOCTYPE svg PUBLIC "-//W3C//DTD SVG 20010904//EN"
 "http://www.w3.org/TR/2001/REC-SVG-20010904/DTD/svg10.dtd">
<svg version="1.0" xmlns="http://www.w3.org/2000/svg"
 width="512.000000pt" height="512.000000pt" viewBox="0 0 512.000000 512.000000"
 preserveAspectRatio="xMidYMid meet">
<metadata>
Created by potrace 1.11, written by Peter Selinger 2001-2013
</metadata>
<g transform="translate(0.000000,512.000000) scale(0.100000,-0.100000)"
fill="#000000" stroke="none">
<path d="M1324 4625 c1 -8 24 -29 52 -47 60 -40 71 -48 92 -70 9 -10 20 -18
25 -18 14 0 37 -27 29 -34 -3 -4 1 -4 11 0 12 4 17 1 17 -10 0 -9 4 -16 8 -16
5 0 15 -12 23 -27 8 -16 21 -34 29 -41 10 -9 10 -11 1 -7 -9 5 -8 0 3 -18 13
-20 14 -26 4 -30 -8 -3 -5 -6 7 -6 17 -1 17 -3 5 -11 -8 -5 -10 -10 -4 -10 14
0 13 -72 -1 -82 -6 -5 -4 -8 5 -8 13 0 13 -1 0 -10 -8 -5 -16 -14 -16 -20 -1
-5 -3 -12 -4 -15 -1 -3 -3 -8 -5 -12 -7 -27 -19 -42 -28 -36 -5 3 -8 2 -4 -3
7 -12 -93 -136 -153 -191 -36 -33 -47 -38 -57 -28 -6 7 -10 15 -7 18 5 5 -77
94 -89 96 -4 0 -17 7 -30 16 -12 8 -33 16 -46 18 -12 2 -27 10 -32 18 -7 11
-9 12 -9 0 0 -11 -3 -11 -15 -1 -8 7 -21 10 -29 7 -7 -3 -24 2 -37 10 -12 9
-19 12 -16 6 4 -6 -6 -10 -24 -11 -20 0 -27 3 -22 11 3 7 -3 3 -15 -7 -13 -11
-22 -14 -22 -7 0 9 -6 9 -22 -1 -13 -7 -27 -13 -33 -13 -24 -1 -105 -30 -105
-38 0 -4 -4 -5 -10 -2 -5 3 -10 1 -10 -5 0 -6 -4 -8 -10 -5 -5 3 -10 2 -10 -4
0 -5 4 -13 10 -16 5 -3 10 -1 10 4 0 6 5 11 11 11 5 0 7 -5 3 -11 -5 -8 -1 -8
14 0 10 6 29 8 41 6 12 -2 21 1 21 8 0 8 3 8 8 2 8 -11 18 -14 70 -19 21 -3
38 -5 40 -6 1 -2 5 -3 10 -4 4 -1 18 -8 31 -15 13 -7 21 -8 17 -2 -4 6 7 3 23
-7 17 -9 31 -20 31 -24 0 -5 5 -8 12 -8 32 0 116 -126 104 -157 -3 -7 0 -12 6
-10 12 2 15 -11 22 -98 2 -27 5 -52 6 -55 6 -13 4 -36 -4 -47 -5 -9 -4 -13 4
-13 10 0 10 -3 0 -15 -9 -10 -9 -15 -1 -15 6 0 11 -5 11 -11 0 -5 -4 -8 -8 -5
-5 3 -9 -1 -9 -9 0 -8 4 -15 8 -15 5 0 7 -18 5 -40 -2 -22 0 -40 5 -40 5 0 6
-7 3 -14 -3 -8 0 -21 7 -29 12 -12 20 -7 59 31 25 25 61 57 81 72 29 20 36 32
35 57 -1 17 2 29 7 26 4 -2 7 1 7 6 0 6 -4 11 -8 11 -5 0 -9 7 -9 15 0 8 4 15
8 15 4 0 6 8 5 17 -2 10 3 33 11 51 7 18 11 37 8 42 -3 5 5 19 17 31 13 12 17
18 9 14 -8 -5 -7 3 5 21 29 46 68 98 79 106 5 4 7 8 3 8 -3 0 34 42 83 93 49
50 92 100 95 110 3 9 10 15 15 12 8 -6 13 8 10 28 0 4 3 7 8 7 5 0 15 15 22
33 15 41 16 44 18 63 0 9 6 12 13 8 7 -5 8 -3 3 7 -5 7 -10 29 -11 49 -3 44
-6 54 -32 113 -12 26 -28 50 -37 53 -8 3 -12 10 -9 15 3 5 2 9 -3 9 -4 0 -21
13 -38 28 -36 33 -150 94 -159 85 -3 -3 -6 -1 -6 6 0 7 -4 9 -10 6 -5 -3 -10
-2 -10 3 0 5 -6 9 -12 10 -15 1 -52 10 -55 12 -2 2 -7 3 -12 4 -5 0 -12 4 -15
7 -4 4 -20 5 -36 3 -17 -2 -30 0 -30 5 0 5 -8 8 -17 6 -10 -1 -25 1 -35 6 -12
6 -16 5 -14 -6z"/>
<path d="M3014 4588 c-4 -6 -3 -8 3 -5 6 4 10 -6 11 -24 0 -17 6 -37 13 -45 9
-11 8 -14 -2 -14 -9 0 -10 -3 -4 -8 6 -4 11 -18 12 -32 4 -38 12 -121 17 -153
2 -15 0 -30 -4 -32 -4 -2 -6 -16 -5 -30 2 -14 -1 -25 -5 -25 -5 0 -7 -9 -5
-20 2 -12 -2 -23 -10 -27 -8 -3 -15 -14 -15 -24 0 -10 -5 -19 -11 -19 -5 0 -7
-5 -4 -10 3 -6 -2 -13 -11 -17 -10 -3 -26 -15 -36 -25 -10 -10 -23 -16 -28
-13 -6 4 -10 -1 -10 -9 0 -10 -6 -13 -16 -9 -9 3 -20 0 -25 -8 -7 -12 -9 -12
-9 1 0 11 -3 12 -8 3 -8 -12 -52 -25 -85 -24 -9 0 -16 -3 -13 -7 2 -4 -26 -7
-62 -6 -37 0 -73 -4 -79 -9 -9 -6 -13 -5 -13 4 0 12 -2 12 -9 0 -6 -9 -11 -10
-15 -2 -5 8 -13 8 -27 1 -26 -15 -38 14 -15 39 9 10 13 20 10 24 -3 3 -7 30
-9 59 -3 66 -6 80 -25 96 -13 12 -13 13 0 6 11 -6 10 -2 -3 13 -9 11 -14 23
-10 26 3 4 1 7 -5 7 -7 0 -12 5 -12 10 0 17 -88 114 -126 137 -33 22 -128 66
-141 66 -7 0 -13 3 -13 7 0 9 -38 6 -47 -5 -5 -4 -3 -5 4 -1 6 3 16 -2 22 -11
6 -10 11 -15 11 -10 0 10 77 -68 116 -118 17 -22 34 -53 38 -68 4 -15 10 -26
15 -23 4 3 7 -6 5 -19 -1 -14 3 -25 9 -25 5 0 8 -2 5 -6 -3 -3 -2 -21 2 -40 4
-18 5 -34 1 -34 -3 0 -7 -14 -8 -31 -3 -47 -44 -126 -87 -169 -11 -11 -16 -20
-12 -20 4 0 -7 -15 -23 -32 -17 -18 -31 -37 -31 -41 0 -5 -4 -5 -10 -2 -5 3
-10 2 -10 -2 0 -5 -18 -28 -40 -51 -22 -22 -40 -44 -40 -47 0 -4 -7 -13 -15
-22 -12 -12 -13 -18 -4 -29 6 -8 16 -11 22 -7 19 11 47 11 47 -1 0 -7 3 -7 8
-1 9 13 32 18 32 7 0 -4 12 -7 28 -6 15 1 35 -3 44 -7 11 -6 18 -5 21 4 4 9 6
9 6 -1 1 -14 3 -13 60 40 40 36 103 76 135 84 14 3 26 11 26 18 0 6 5 4 10 -4
5 -8 10 -10 10 -4 0 7 7 15 16 18 10 4 13 2 8 -7 -6 -9 -4 -9 8 1 8 7 33 14
54 16 22 3 39 5 39 6 0 4 112 13 273 23 17 1 32 5 32 8 0 4 7 10 16 13 9 3 12
2 8 -5 -3 -6 12 -1 35 10 23 12 41 19 41 16 0 -10 39 26 85 79 20 23 37 58 25
51 -7 -4 -4 4 5 18 9 15 14 31 10 37 -3 5 0 10 7 10 9 0 9 3 -2 10 -8 5 -10
10 -3 10 6 0 10 13 9 30 -1 17 3 30 8 30 6 0 5 4 -3 9 -8 5 -11 16 -8 25 4 9
3 16 -2 16 -5 0 -7 14 -5 31 3 21 0 28 -8 23 -8 -5 -9 -2 -5 9 4 10 2 17 -4
17 -6 0 -9 6 -6 13 3 7 -1 21 -9 31 -7 11 -11 23 -8 27 3 5 0 9 -5 9 -6 0 -11
5 -11 11 0 6 -10 25 -22 42 -12 17 -16 27 -8 22 7 -4 5 3 -6 17 -10 14 -22 24
-26 21 -5 -2 -8 2 -8 10 0 7 -9 23 -20 35 -11 12 -20 25 -20 31 0 14 -29 21
-36 9z"/>
<path d="M1838 4528 c-9 -7 -8 -8 6 -4 13 5 17 2 13 -8 -4 -9 2 -17 14 -21 10
-4 19 -11 19 -16 0 -5 6 -9 14 -9 8 0 24 -16 36 -35 12 -20 28 -42 36 -50 8
-8 15 -18 14 -22 0 -4 5 -23 11 -41 8 -25 8 -118 0 -160 -1 -2 -6 0 -13 4 -6
4 -8 3 -5 -4 10 -15 -3 -43 -16 -35 -5 3 -7 1 -4 -4 4 -6 -3 -22 -14 -37 -11
-14 -18 -26 -14 -26 5 0 -13 -20 -77 -91 -10 -10 -16 -19 -13 -19 2 0 -11 -16
-30 -35 -19 -19 -35 -39 -35 -45 0 -5 -4 -10 -8 -10 -5 0 -21 -18 -38 -41 -16
-22 -34 -46 -39 -52 -6 -7 -17 -27 -24 -44 -7 -18 -18 -33 -23 -33 -6 0 -8 -9
-5 -20 3 -11 1 -20 -4 -20 -5 0 -9 -7 -9 -16 0 -9 -5 -12 -12 -8 -9 5 -9 2 1
-9 7 -9 9 -17 4 -17 -5 0 -10 -7 -10 -15 0 -17 29 -20 55 -5 16 9 66 30 85 35
4 2 9 4 12 5 3 1 10 4 15 5 6 1 13 4 18 5 4 2 12 4 17 5 6 1 17 4 25 8 8 3 28
8 44 12 15 3 26 8 23 11 -3 3 2 14 11 24 29 30 96 112 112 134 8 12 26 32 40
46 14 14 41 45 60 69 19 24 40 48 45 55 17 19 36 67 30 77 -4 5 -1 9 5 9 6 0
8 4 5 10 -3 5 -1 18 5 29 5 11 6 22 2 25 -4 3 -7 24 -6 48 2 44 -30 138 -48
138 -5 0 -6 5 -3 10 3 6 -1 10 -9 10 -9 0 -15 4 -13 8 3 10 -61 66 -85 75 -10
4 -18 11 -18 16 0 6 -7 8 -15 5 -8 -4 -15 -2 -15 3 0 5 -21 18 -47 28 -27 11
-62 27 -80 36 -21 11 -36 13 -45 7z"/>
<path d="M3313 4123 c0 -7 4 -13 8 -13 3 0 9 -9 12 -20 3 -11 0 -20 -6 -20 -7
0 -5 -5 3 -10 10 -6 11 -10 3 -10 -9 0 -10 -7 -3 -25 7 -17 6 -25 -1 -25 -8 0
-7 -5 1 -15 10 -12 10 -15 0 -15 -7 0 -10 -6 -7 -14 3 -8 -1 -20 -8 -26 -8 -7
-13 -16 -10 -20 3 -5 -2 -16 -11 -24 -8 -9 -12 -16 -8 -16 4 0 -10 -16 -30
-35 -21 -19 -42 -35 -47 -35 -5 0 -9 -5 -9 -11 0 -5 -4 -8 -9 -5 -5 4 -11 1
-13 -5 -4 -11 -34 -19 -85 -23 -11 0 -19 -4 -17 -8 3 -4 -4 -7 -13 -7 -86 -3
-123 -8 -123 -16 0 -5 -5 -3 -10 5 -8 12 -10 12 -10 1 0 -8 -3 -11 -7 -8 -3 4
-13 1 -21 -6 -11 -8 -14 -9 -9 0 5 8 0 11 -13 10 -11 -1 -20 -4 -20 -7 0 -3
-21 -5 -48 -6 -26 0 -65 -4 -87 -8 -22 -4 -49 -9 -60 -9 -11 -1 -22 -5 -25 -9
-3 -4 -16 -9 -28 -11 -12 -2 -28 -9 -34 -15 -7 -7 -17 -12 -24 -12 -6 0 -17
-6 -23 -14 -9 -11 -5 -16 18 -26 17 -7 33 -11 37 -10 4 1 10 -2 13 -7 3 -4 33
-21 66 -38 33 -16 62 -33 63 -37 2 -5 13 -8 23 -8 12 0 17 -5 14 -11 -5 -6 9
-9 39 -8 25 2 46 8 46 13 0 6 4 5 9 -3 6 -9 11 -10 15 -3 4 6 13 9 21 5 9 -3
15 1 15 8 0 11 3 11 10 -1 6 -9 13 -11 18 -5 4 6 32 10 62 10 30 0 58 4 62 10
5 6 8 5 8 -3 0 -10 5 -10 21 -1 16 8 20 8 14 -1 -5 -9 -3 -9 11 -2 11 5 36 9
56 8 21 -2 34 2 31 7 -3 5 0 7 8 5 8 -3 20 2 27 11 10 12 12 13 6 1 -12 -24
67 38 114 89 23 25 45 56 48 69 4 12 9 22 13 22 9 0 14 50 14 120 -1 69 -6
110 -13 110 -3 0 -6 8 -7 18 -1 10 -14 45 -29 78 -15 32 -27 64 -27 71 0 6 -8
11 -17 10 -9 0 -17 -7 -17 -14z"/>
<path d="M673 3823 c8 -12 -49 -37 -64 -27 -5 3 -9 0 -9 -6 0 -6 -4 -8 -10 -5
-5 3 -10 1 -10 -5 0 -6 -3 -9 -7 -7 -5 3 -33 -8 -63 -25 -30 -16 -47 -27 -38
-24 9 3 19 0 22 -7 3 -9 5 -9 5 0 1 7 8 10 18 6 11 -5 14 -3 8 6 -6 10 -3 11
14 2 11 -7 21 -8 21 -4 0 4 5 1 10 -7 8 -12 10 -12 10 5 0 11 4 16 8 10 4 -5
16 -10 27 -9 11 0 26 -5 34 -10 12 -9 13 -8 6 4 -6 12 -5 13 6 3 7 -7 21 -13
31 -13 10 0 18 -5 18 -11 0 -5 4 -8 8 -5 5 3 20 -6 34 -19 14 -13 29 -21 32
-18 3 4 6 -1 6 -9 0 -9 7 -18 15 -22 8 -3 15 -12 15 -21 0 -8 4 -15 10 -15 5
0 9 -3 8 -7 -1 -5 4 -21 11 -38 7 -16 15 -50 18 -75 3 -25 10 -53 15 -64 8
-14 7 -17 -4 -10 -10 6 -11 5 -2 -7 5 -8 10 -21 9 -29 -1 -8 3 -23 7 -32 6
-12 5 -18 -4 -18 -9 0 -9 -3 2 -10 11 -7 11 -10 2 -10 -8 0 -10 -5 -5 -12 4
-7 8 -22 9 -33 1 -11 3 -33 5 -50 1 -16 7 -36 13 -44 8 -11 8 -13 -1 -7 -7 4
-13 2 -13 -3 0 -6 5 -11 11 -11 6 0 9 -6 6 -12 -2 -7 2 -25 10 -40 8 -18 10
-28 3 -28 -6 0 -5 -9 4 -22 8 -13 17 -34 21 -48 4 -14 18 -35 31 -47 13 -12
24 -26 24 -31 0 -15 25 -21 41 -11 8 5 10 9 5 9 -6 0 -5 5 1 11 6 6 9 18 6 25
-3 8 0 14 7 14 6 0 8 5 5 10 -3 6 -1 10 4 10 6 0 10 3 10 8 -1 4 0 10 1 15 1
4 3 10 4 15 1 4 9 21 19 38 9 17 13 35 9 39 -4 5 -1 5 6 1 13 -8 13 -7 16 42
1 17 -1 32 -4 32 -6 0 -11 33 -13 78 -1 12 -4 22 -7 22 -5 0 -11 66 -13 148
-1 23 -6 42 -12 42 -5 0 -3 5 5 10 8 5 10 10 5 10 -6 0 -11 9 -12 20 -1 13 2
18 9 14 7 -5 8 -2 2 7 -8 14 -12 29 -18 79 -2 14 -4 29 -5 33 0 5 -6 5 -13 1
-7 -4 -8 -3 -4 4 4 6 -1 24 -11 39 -62 97 -157 155 -260 157 -35 1 -63 -1 -63
-4 0 -11 -34 -8 -49 4 -11 8 -13 8 -8 -1z"/>
<path d="M395 3608 c-51 -11 -77 -15 -93 -17 -7 0 -11 -5 -7 -10 3 -6 -3 -8
-14 -6 -11 2 -25 -3 -32 -11 -6 -8 -20 -14 -30 -14 -11 0 -19 -5 -19 -12 0 -6
-3 -8 -7 -5 -3 4 -15 0 -25 -10 -10 -9 -18 -13 -18 -9 0 4 -6 1 -14 -6 -8 -7
-11 -17 -8 -22 3 -5 0 -6 -6 -2 -6 3 -13 2 -17 -4 -4 -6 -10 -8 -15 -5 -4 3
-11 -2 -14 -11 -3 -8 -9 -13 -13 -11 -5 3 -14 -1 -21 -9 -7 -8 -9 -14 -5 -14
4 0 1 -5 -7 -10 -12 -8 -11 -10 7 -10 12 0 24 4 28 10 3 5 12 7 20 3 8 -3 15
-1 15 3 0 5 22 9 49 9 27 0 47 3 45 6 -2 3 11 7 29 8 66 4 82 7 95 14 6 5 12
4 12 0 0 -8 28 -13 78 -16 6 0 12 -4 12 -9 0 -4 3 -7 8 -6 35 7 159 -99 148
-128 -3 -7 -1 -14 4 -16 6 -2 11 -15 12 -30 1 -16 5 -28 9 -28 5 0 10 -34 13
-107 0 -18 4 -33 9 -33 4 0 7 -9 7 -21 0 -11 -4 -17 -10 -14 -6 3 -7 -1 -4 -9
3 -9 11 -13 18 -10 6 3 2 -2 -8 -10 -13 -10 -15 -16 -7 -16 11 0 11 -3 0 -17
-10 -11 -10 -14 -1 -9 16 10 16 -16 0 -33 -9 -10 -9 -12 -1 -7 6 3 14 2 18 -3
5 -10 -30 -7 -70 6 -30 9 -75 9 -75 0 0 -4 -6 -7 -12 -6 -21 4 -88 -13 -88
-21 0 -7 -29 -18 -47 -18 -3 0 -9 -4 -12 -9 -3 -5 -23 -21 -43 -34 -42 -28
-121 -123 -111 -133 3 -3 1 -6 -6 -6 -7 0 -10 -4 -6 -9 3 -5 1 -12 -5 -16 -6
-4 -8 -11 -5 -16 4 -5 2 -9 -4 -9 -5 0 -12 -9 -15 -20 -3 -11 -9 -29 -12 -40
-4 -14 -1 -20 10 -20 9 0 16 6 16 14 0 7 21 31 46 52 26 21 53 45 60 52 8 7
14 10 14 5 1 -4 10 3 20 16 11 13 20 20 20 16 0 -4 7 -2 15 5 8 6 18 9 24 6 5
-3 11 -1 13 6 4 11 29 20 61 19 9 0 15 4 12 9 -3 4 11 4 30 0 23 -5 36 -4 39
4 3 8 5 7 5 -1 1 -7 8 -10 16 -7 8 4 15 1 15 -4 0 -6 9 -9 20 -7 12 2 23 -2
27 -10 3 -8 12 -15 21 -15 17 0 81 -41 119 -75 12 -11 42 -37 67 -59 25 -21
43 -44 39 -50 -3 -6 -3 -8 2 -4 8 8 65 -28 78 -49 5 -7 12 -11 18 -8 5 4 16
-1 25 -10 15 -15 18 -15 35 1 10 9 15 22 12 28 -13 19 -14 48 -2 41 6 -4 5 1
-2 13 -7 11 -9 27 -4 38 22 53 7 97 -42 123 -13 6 -23 17 -23 24 0 7 -9 18
-20 25 -11 7 -20 18 -20 26 0 8 -6 16 -14 19 -8 3 -20 22 -27 41 -7 20 -16 36
-20 36 -5 0 -6 9 -4 20 2 11 0 20 -5 20 -4 0 -11 7 -14 16 -3 8 -2 12 4 9 6
-3 10 -1 10 4 0 6 -5 11 -11 11 -5 0 -8 4 -4 9 3 5 1 12 -4 16 -5 3 -8 14 -6
25 2 11 0 22 -6 25 -5 4 -9 11 -9 16 0 6 6 7 13 3 9 -6 9 -5 1 7 -7 8 -11 25
-10 39 1 14 -2 31 -7 38 -6 8 -6 12 2 12 7 0 8 8 3 23 -5 12 -7 37 -5 55 2 23
-1 31 -9 26 -7 -5 -8 -3 -2 7 12 19 12 33 -1 41 -6 5 -4 8 4 8 11 0 10 4 -4
13 -12 9 -14 16 -7 21 8 4 7 16 -2 39 -17 42 -27 71 -27 75 1 1 -16 19 -37 40
-39 38 -88 67 -109 63 -7 -1 -13 2 -13 7 0 6 -7 13 -16 16 -8 3 -12 2 -9 -4 3
-6 1 -10 -4 -10 -6 0 -11 3 -11 8 0 10 -86 10 -135 0z"/>
<path d="M1995 3570 c-3 -6 -11 -8 -16 -5 -5 4 -9 2 -9 -3 0 -5 -13 -8 -30 -7
-16 1 -30 -1 -30 -5 0 -4 -10 -6 -22 -6 -13 1 -28 -1 -34 -6 -6 -4 -19 -9 -30
-11 -10 -1 -25 -6 -32 -11 -7 -4 -19 -5 -27 -2 -8 3 -14 0 -12 -6 1 -7 -2 -12
-8 -13 -5 0 -16 -4 -22 -8 -7 -5 -13 -5 -13 -1 0 3 -7 1 -15 -6 -8 -7 -15 -9
-15 -4 0 5 -5 1 -11 -8 -6 -11 -16 -15 -27 -11 -9 3 -14 3 -10 -2 4 -4 -13
-19 -39 -33 -47 -24 -59 -33 -94 -64 -10 -10 -19 -16 -19 -13 0 2 -28 -24 -62
-58 -35 -34 -67 -61 -71 -59 -5 1 -6 -1 -3 -6 3 -5 -9 -23 -26 -40 -16 -18
-27 -32 -22 -32 4 0 -1 -7 -12 -16 -10 -8 -12 -13 -4 -9 8 4 4 -3 -10 -14 -14
-11 -21 -21 -17 -21 5 0 1 -7 -7 -16 -9 -8 -16 -22 -16 -30 0 -8 -3 -14 -8
-14 -10 0 -51 -95 -59 -135 -2 -11 -8 -21 -13 -23 -5 -2 -6 -10 -3 -18 3 -8 1
-14 -4 -14 -7 0 -13 -22 -16 -67 0 -7 -5 -13 -10 -13 -6 0 -7 -3 -4 -6 3 -4 2
-15 -4 -25 -7 -14 -6 -19 2 -19 8 0 8 -4 2 -12 -6 -7 -9 -23 -8 -36 1 -13 -3
-25 -8 -29 -5 -3 -5 -8 2 -12 7 -5 6 -15 -4 -34 -9 -19 -10 -29 -3 -33 7 -4 8
-2 4 4 -4 7 -2 12 3 12 13 0 14 -17 2 -25 -9 -5 -6 -49 5 -67 3 -4 1 -8 -5 -8
-7 0 -7 -8 -2 -22 4 -13 8 -35 7 -50 -1 -16 1 -28 4 -28 4 0 6 -10 5 -22 -1
-13 2 -29 8 -35 5 -7 7 -13 3 -13 -3 0 1 -16 9 -37 8 -20 13 -38 10 -41 -2 -2
1 -14 7 -26 7 -11 13 -30 15 -41 2 -11 8 -21 13 -23 6 -2 10 -12 10 -22 0 -10
7 -25 15 -34 9 -8 16 -19 16 -23 2 -13 52 -98 61 -101 4 -2 8 -8 8 -13 0 -11
24 -41 68 -85 17 -18 32 -37 32 -43 0 -6 4 -11 9 -11 5 0 25 -15 45 -32 51
-48 59 -54 128 -98 35 -22 69 -44 76 -50 6 -6 12 -8 12 -5 0 4 17 -4 38 -17
20 -12 37 -21 37 -20 0 3 20 -2 53 -15 9 -3 20 -7 25 -8 4 -2 10 -4 15 -5 4
-1 11 -2 16 -1 4 1 14 -3 21 -9 7 -6 31 -11 54 -13 22 -1 41 -5 41 -9 0 -4 7
-4 17 -1 9 4 14 2 11 -3 -7 -11 211 -12 229 -1 6 4 14 1 16 -5 4 -10 6 -10 6
-1 1 7 8 10 16 7 8 -4 22 -1 30 6 12 10 15 10 15 0 0 -9 4 -9 17 1 9 8 18 13
20 12 1 -2 15 -3 29 -3 16 0 23 4 18 12 -4 6 -3 8 3 5 12 -7 111 20 131 35 6
6 12 8 12 4 0 -4 10 0 23 9 13 8 27 12 30 8 4 -3 7 -2 7 4 0 9 44 36 62 37 4
1 17 9 28 18 11 10 25 18 30 18 6 0 10 5 10 12 0 6 3 8 6 5 4 -4 15 3 25 15
11 11 19 18 19 15 0 -3 18 12 40 34 21 21 45 39 51 39 7 0 10 2 7 5 -3 3 6 18
21 33 42 45 82 92 76 92 -3 0 5 12 19 27 14 15 23 30 20 35 -3 4 0 8 5 8 6 0
11 6 11 13 0 7 6 19 13 26 6 6 12 15 12 19 1 4 11 26 23 49 12 23 22 49 22 58
0 8 5 15 11 15 5 0 8 4 4 9 -3 5 -1 12 5 16 6 4 8 10 5 15 -3 5 -1 11 4 15 6
3 8 12 4 20 -3 8 -1 15 4 15 5 0 8 16 8 35 -1 20 2 32 8 28 6 -4 8 3 5 15 -4
12 -3 22 0 22 4 0 7 51 6 113 0 61 2 116 5 122 3 5 6 25 7 45 1 19 3 36 4 38
1 1 3 5 4 10 1 4 6 23 10 42 5 19 12 41 16 50 36 72 55 115 52 123 -1 5 2 6 8
2 5 -3 10 -1 10 4 0 6 0 13 0 16 0 3 8 13 18 23 9 10 31 34 47 53 17 19 43 45
59 57 16 12 25 22 21 22 -5 0 20 18 54 40 34 22 66 40 72 40 6 0 7 4 4 10 -3
6 1 7 9 4 10 -4 16 -1 16 7 0 7 3 9 7 6 3 -4 12 -2 20 4 7 6 13 8 13 4 0 -4 6
-3 13 3 7 6 28 14 47 17 19 3 37 9 40 13 3 4 15 8 27 8 12 1 36 4 53 8 21 4
29 2 24 -5 -4 -8 -1 -8 12 -1 11 5 25 7 33 4 10 -3 11 0 5 9 -6 11 -4 11 10 0
15 -13 19 -13 27 0 6 9 9 10 9 2 0 -7 10 -13 23 -13 42 1 86 -5 93 -13 4 -4
13 -2 21 5 11 9 13 8 11 -2 -2 -10 6 -14 24 -14 15 1 26 -2 23 -5 -2 -4 16
-13 41 -20 24 -7 44 -17 44 -22 0 -5 4 -8 9 -7 11 4 131 -74 131 -85 0 -4 4
-5 10 -2 6 3 10 -1 10 -9 0 -8 9 -17 19 -21 11 -3 27 -18 37 -33 9 -15 28 -38
40 -51 13 -13 22 -27 19 -31 -3 -4 2 -10 10 -14 8 -3 15 -12 15 -21 0 -8 4
-15 9 -15 7 0 17 -20 25 -50 0 -3 10 -15 21 -26 19 -20 30 -21 170 -19 83 1
154 3 158 3 4 1 3 10 -2 21 -6 10 -7 21 -4 25 3 3 1 6 -5 6 -7 0 -12 11 -12
25 0 14 -4 25 -8 25 -4 0 -8 10 -9 22 -1 11 -7 24 -13 28 -7 4 -11 9 -9 11 5
7 -35 89 -44 89 -4 0 -5 5 -2 10 3 6 1 10 -4 10 -6 0 -11 6 -11 13 0 7 -9 23
-20 35 -12 12 -19 22 -16 22 15 0 -160 180 -218 225 -22 17 -43 29 -48 27 -4
-1 -8 2 -8 7 0 5 -9 13 -20 16 -11 4 -17 11 -14 17 5 7 2 8 -6 3 -8 -5 -18 -1
-27 10 -7 11 -13 16 -13 12 0 -4 -10 -2 -22 5 -13 7 -26 11 -30 10 -5 -1 -8 2
-8 8 0 5 -11 10 -24 10 -13 0 -26 4 -28 10 -2 8 -29 16 -61 19 -5 1 -5 6 -1
13 4 7 3 8 -5 4 -6 -4 -19 -2 -28 6 -14 11 -16 11 -8 -1 6 -11 4 -13 -11 -6
-10 4 -32 10 -49 13 -16 2 -36 10 -44 16 -12 9 -13 8 -6 -3 6 -10 4 -12 -6 -6
-17 11 -34 13 -137 16 -45 1 -85 -1 -89 -4 -3 -4 -11 -3 -17 2 -6 5 -21 4 -36
-2 -23 -9 -74 -18 -127 -21 -11 0 -19 -5 -15 -10 3 -5 -2 -7 -11 -3 -10 3 -17
2 -17 -3 0 -5 -7 -7 -15 -4 -8 4 -15 2 -15 -3 0 -5 -10 -9 -22 -11 -13 -1 -54
-17 -93 -37 -38 -19 -76 -35 -83 -35 -7 0 -10 -4 -7 -10 5 -9 -1 -12 -21 -9
-3 0 -15 -10 -26 -23 -11 -13 -24 -23 -30 -23 -5 0 -16 -9 -24 -20 -8 -11 -16
-18 -17 -15 -1 2 -15 -7 -31 -20 -37 -32 -106 -100 -100 -100 2 0 -3 -8 -11
-17 -48 -56 -76 -93 -70 -93 4 0 -3 -9 -16 -20 -13 -10 -20 -19 -16 -20 5 0
-1 -13 -12 -29 -11 -15 -18 -31 -14 -35 3 -3 2 -6 -4 -6 -9 0 -21 -23 -27 -52
0 -3 -4 -10 -8 -14 -5 -4 -8 -16 -8 -26 0 -10 -5 -18 -11 -18 -5 0 -8 -4 -4
-9 3 -5 1 -12 -4 -16 -5 -3 -8 -14 -6 -25 2 -11 0 -20 -4 -20 -8 0 -11 -15
-12 -62 -1 -15 -4 -26 -8 -24 -7 5 -8 -2 -13 -91 -1 -29 -7 -53 -13 -53 -7 0
-7 -3 0 -8 14 -9 14 -45 0 -54 -7 -6 -7 -10 1 -15 12 -9 11 -53 -1 -73 -6 -9
-4 -11 6 -5 11 6 11 5 2 -5 -6 -7 -9 -19 -6 -26 3 -8 1 -14 -5 -14 -5 0 -8
-11 -7 -25 2 -14 -1 -25 -6 -25 -4 0 -6 -7 -3 -15 4 -8 1 -15 -5 -15 -6 0 -10
-3 -10 -7 1 -8 0 -12 -6 -30 -2 -5 -6 -18 -10 -30 -4 -13 -11 -23 -16 -23 -5
0 -8 -3 -7 -7 3 -13 -25 -63 -34 -63 -5 0 -7 -4 -4 -9 7 -11 -143 -173 -155
-165 -5 3 -9 1 -9 -4 0 -11 -80 -66 -80 -55 0 5 -5 0 -11 -10 -6 -9 -14 -15
-19 -12 -5 3 -11 1 -15 -5 -4 -6 -11 -8 -16 -5 -5 4 -9 1 -9 -5 0 -6 -4 -8
-10 -5 -5 3 -10 1 -10 -5 0 -6 -4 -9 -9 -5 -5 3 -13 0 -16 -6 -4 -5 -13 -8
-21 -5 -7 3 -16 1 -19 -5 -4 -5 -11 -7 -16 -4 -5 4 -9 2 -9 -4 0 -5 -8 -8 -17
-6 -10 1 -26 -2 -35 -7 -13 -6 -18 -5 -18 4 0 9 -2 10 -8 2 -4 -6 -23 -11 -42
-9 -19 1 -41 -3 -48 -9 -8 -6 -16 -6 -20 0 -4 5 -25 10 -47 11 -81 4 -105 8
-105 16 0 5 -6 7 -12 4 -7 -2 -25 2 -39 9 -15 7 -29 10 -33 7 -3 -4 -6 0 -6 7
0 7 -3 10 -6 7 -7 -7 -76 27 -106 52 -10 8 -18 10 -18 6 0 -5 -7 0 -15 11 -8
10 -15 16 -15 12 0 -5 -18 9 -40 30 -22 20 -45 42 -52 48 -27 23 -83 97 -81
105 2 5 -1 9 -6 9 -9 0 -55 86 -56 103 0 4 -5 11 -11 15 -6 4 -10 15 -8 25 1
9 -2 17 -7 17 -5 0 -8 3 -8 8 1 4 0 9 -1 12 -4 10 -10 46 -12 73 -1 15 -5 27
-8 27 -4 0 -6 29 -6 65 1 37 -3 65 -9 65 -6 0 -6 3 1 8 6 4 10 25 9 47 0 24 5
45 15 53 8 8 9 11 3 7 -15 -7 -18 11 -4 20 6 3 8 14 6 25 -2 11 1 20 6 20 6 0
7 5 4 10 -3 6 -1 10 5 10 6 0 8 4 5 10 -3 5 1 23 10 40 8 16 12 30 8 30 -5 0
1 7 12 16 11 8 19 18 19 22 -2 14 19 52 29 52 6 0 8 3 5 6 -8 8 12 32 106 125
43 43 82 76 86 74 3 -2 14 5 23 16 9 10 24 19 34 19 9 0 24 7 33 15 10 9 27
17 38 20 11 2 29 8 40 14 11 6 22 7 26 4 3 -3 6 -1 6 4 0 6 8 10 18 8 9 -1 23
2 29 7 7 6 22 8 33 5 11 -3 20 -2 20 3 0 4 20 7 45 5 27 -1 45 2 45 9 0 6 5 4
10 -4 9 -13 10 -13 10 0 0 9 3 11 8 5 4 -5 34 -11 67 -13 33 -1 61 -6 63 -11
1 -4 14 -6 27 -3 15 2 25 0 25 -7 0 -6 3 -10 8 -9 12 2 66 -14 81 -25 7 -6 20
-12 28 -13 62 -9 296 -231 296 -280 0 -7 8 -15 18 -17 13 -3 21 4 28 24 6 16
17 37 26 45 8 9 13 20 10 25 -4 5 -2 9 4 9 6 0 13 11 17 25 3 14 10 25 15 25
5 0 9 6 9 14 0 8 8 22 18 32 9 10 16 18 15 18 -6 2 10 46 17 46 6 0 7 20 1 53
-2 15 -163 167 -177 167 -2 0 -14 9 -26 20 -12 11 -28 20 -35 20 -7 0 -13 5
-13 10 0 6 -7 10 -15 10 -8 0 -15 5 -15 10 0 6 -6 10 -14 10 -7 0 -34 12 -60
26 -25 14 -46 22 -46 17 0 -4 -4 -3 -8 3 -11 15 -119 47 -133 38 -8 -4 -9 -3
-5 4 5 8 -2 12 -18 13 -35 2 -39 3 -55 13 -10 7 -12 6 -6 -4 6 -10 4 -11 -6
-4 -20 12 -33 14 -147 17 -57 1 -106 -2 -109 -6 -3 -4 -11 -3 -18 3 -9 8 -15
8 -20 0z"/>
<path d="M396 2581 c-4 -6 -18 -9 -32 -7 -13 3 -22 1 -19 -4 3 -5 -10 -13 -29
-20 -18 -6 -49 -28 -68 -50 -20 -21 -39 -36 -43 -32 -4 4 -6 0 -3 -8 3 -8 -2
-22 -11 -30 -21 -20 -51 -74 -51 -93 0 -8 -7 -20 -15 -27 -8 -7 -13 -15 -10
-19 2 -4 -2 -19 -10 -34 -8 -15 -12 -27 -9 -27 3 0 0 -8 -5 -18 -8 -14 -6 -19
5 -19 7 0 12 2 10 5 -9 8 94 122 111 122 6 0 13 4 15 9 2 5 10 11 18 13 8 2
17 6 20 10 12 16 110 25 165 15 11 -2 31 -10 45 -17 14 -8 28 -13 33 -12 4 1
7 -3 7 -10 0 -6 3 -9 6 -5 4 3 13 -1 21 -9 8 -8 19 -12 24 -9 5 4 9 -1 9 -10
0 -9 5 -13 10 -10 6 3 10 1 10 -4 0 -6 4 -11 10 -11 10 0 46 -28 91 -70 14
-14 31 -24 38 -22 6 2 11 -1 11 -6 0 -14 125 -102 145 -102 9 0 13 -4 10 -10
-3 -5 3 -10 14 -10 11 0 23 -5 26 -10 4 -6 11 -8 16 -5 5 4 9 2 9 -4 0 -5 11
-8 25 -6 14 1 27 -1 30 -4 3 -6 39 -6 88 -2 4 1 3 9 -2 20 -6 10 -7 21 -4 25
3 3 0 6 -9 6 -8 0 -15 7 -16 15 -1 8 -3 22 -4 30 -1 8 -5 15 -10 15 -5 0 -7 4
-3 9 3 5 1 12 -4 15 -4 3 -11 24 -15 46 -3 23 -10 38 -15 35 -5 -3 -7 4 -4 15
3 12 2 20 -3 18 -14 -3 -54 12 -54 22 0 4 -8 10 -17 14 -23 7 -50 25 -82 54
-15 12 -34 25 -43 28 -10 3 -18 10 -18 15 0 5 -7 9 -16 9 -8 0 -12 5 -9 10 3
6 -1 10 -9 10 -8 0 -20 8 -25 18 -6 9 -11 14 -11 10 0 -4 -10 3 -23 15 -41 39
-77 67 -90 70 -6 1 -15 6 -19 11 -3 5 -17 11 -29 13 -13 2 -28 8 -33 13 -5 5
-16 5 -28 -1 -13 -7 -18 -6 -18 2 0 8 -4 9 -13 0 -8 -6 -17 -8 -21 -4 -11 11
-46 10 -46 -1 0 -6 -4 -5 -9 3 -6 9 -11 10 -15 2z"/>
<path d="M4163 2382 c-13 -2 -23 -8 -23 -13 0 -6 -4 -8 -9 -5 -11 7 -25 -49
-16 -64 3 -5 1 -10 -5 -10 -6 0 -8 -5 -4 -12 9 -14 10 -69 2 -90 -4 -8 -2 -21
2 -28 5 -8 4 -22 -1 -32 -7 -12 -6 -18 1 -18 8 0 8 -6 0 -20 -14 -27 13 -40
73 -36 26 2 50 -1 53 -6 3 -5 11 -5 17 0 15 10 137 10 137 0 0 -14 -43 -58
-57 -58 -7 0 -13 -4 -13 -9 0 -9 -99 -76 -113 -76 -4 0 -12 -7 -17 -15 -5 -8
-10 -11 -10 -6 0 5 -7 2 -17 -5 -9 -8 -19 -13 -22 -13 -3 1 -16 -2 -29 -7 -13
-5 -29 -9 -37 -9 -8 0 -16 -4 -20 -9 -3 -6 -14 -8 -25 -6 -11 2 -22 0 -24 -4
-6 -10 -37 -8 -55 4 -10 5 -12 4 -7 -3 4 -7 1 -12 -6 -13 -50 -4 -76 -4 -96 3
-16 5 -21 4 -16 -3 4 -8 1 -8 -12 -1 -11 5 -29 8 -41 7 -13 -1 -23 1 -23 5 0
4 -11 6 -25 5 -14 -2 -25 2 -25 8 0 5 -3 8 -6 5 -8 -9 -124 32 -124 44 0 5 -4
7 -9 4 -5 -3 -25 5 -45 19 -20 13 -36 22 -36 20 0 -7 -47 34 -104 90 -65 64
-117 130 -109 139 3 3 1 6 -5 6 -7 0 -12 6 -12 14 0 27 -28 26 -39 -2 -5 -15
-28 -60 -50 -100 -22 -40 -40 -76 -40 -80 -1 -4 -8 -15 -16 -25 -8 -9 -15 -23
-15 -30 0 -8 -3 -17 -7 -21 -11 -11 -12 -36 -2 -36 6 0 8 -4 5 -9 -4 -5 7 -23
24 -39 16 -17 30 -36 30 -42 0 -6 4 -9 9 -6 11 7 33 -19 23 -28 -4 -4 -2 -6 4
-4 6 2 26 -9 43 -24 17 -16 33 -28 36 -28 3 0 16 -9 29 -21 13 -12 27 -20 31
-19 4 1 11 -2 14 -7 10 -16 138 -82 145 -76 3 4 6 1 6 -6 0 -7 4 -10 8 -7 5 3
25 -4 45 -14 21 -11 37 -16 37 -10 0 5 16 1 36 -10 19 -11 33 -16 29 -10 -3 5
-1 10 4 10 6 0 11 -4 11 -9 0 -5 11 -8 25 -6 14 1 25 -2 25 -7 0 -6 6 -8 14
-5 7 3 19 0 25 -6 8 -8 11 -8 11 1 0 8 7 9 23 4 28 -11 188 -9 205 1 7 5 12 4
12 -3 0 -8 6 -8 20 0 11 6 20 8 20 4 0 -3 8 0 17 7 15 12 16 12 8 -1 -7 -12
-6 -13 6 -4 8 6 28 11 46 10 17 0 29 2 26 7 -2 4 1 8 6 8 26 3 30 4 37 12 12
12 26 8 18 -5 -4 -7 2 -5 13 5 11 9 26 17 34 17 8 0 19 4 24 9 6 5 27 14 48
21 20 6 37 16 37 21 0 5 6 9 14 9 7 0 19 7 26 15 7 8 16 13 20 10 4 -3 19 6
33 19 14 13 28 21 31 18 3 -3 6 0 6 7 0 7 5 9 10 6 6 -3 10 -1 10 5 0 6 11 15
25 22 13 6 22 15 19 19 -3 5 2 9 11 9 9 0 13 5 10 10 -3 6 -1 10 4 10 15 0 51
37 51 52 0 6 3 9 6 5 6 -6 64 55 64 67 0 4 5 12 10 19 41 48 70 92 70 104 0 7
7 16 15 19 8 4 13 10 10 14 -6 9 24 71 40 82 6 4 6 8 1 8 -5 0 -2 8 5 17 8 9
9 14 3 10 -6 -3 -3 10 7 31 10 20 20 48 22 62 2 14 7 32 10 40 15 39 14 70 -2
71 -84 5 -444 2 -448 -4 -2 -4 -10 -4 -16 0 -17 11 -57 11 -63 1 -3 -4 -11 -5
-17 -1 -12 7 -133 11 -174 5z"/>
<path d="M340 2217 c0 -5 -9 -7 -20 -4 -11 3 -20 2 -20 -3 0 -8 -38 -23 -52
-21 -5 1 -8 -3 -8 -9 0 -5 -6 -10 -14 -10 -8 0 -16 -7 -20 -15 -3 -8 -13 -15
-22 -15 -10 0 -15 -3 -11 -6 3 -3 -4 -16 -16 -28 -28 -26 -62 -78 -59 -88 1
-5 -3 -8 -8 -8 -5 0 -9 -3 -9 -7 4 -22 -2 -33 -13 -27 -7 4 -10 4 -6 -1 4 -4
2 -15 -5 -23 -10 -13 -9 -14 1 -8 7 4 3 -9 -8 -28 -11 -20 -19 -40 -19 -44 1
-4 1 -9 -1 -12 -1 -3 -3 -16 -6 -29 -2 -14 -10 -31 -17 -40 -9 -12 -9 -13 1
-7 8 5 12 0 12 -16 0 -18 -2 -20 -10 -8 -5 8 -10 10 -10 4 0 -5 6 -16 12 -23
10 -11 10 -13 1 -7 -9 5 -13 -2 -13 -24 0 -28 2 -30 20 -20 11 6 20 17 20 24
0 8 7 17 16 20 8 3 12 10 9 16 -3 5 -3 10 2 10 4 0 21 20 36 45 16 25 33 45
39 45 5 0 6 5 3 10 -3 6 -1 10 5 10 6 0 15 11 22 25 6 13 15 22 20 19 4 -3 11
2 14 10 3 9 23 24 43 33 20 9 39 22 43 27 4 6 8 8 8 3 0 -4 15 -1 34 7 26 11
36 11 40 3 3 -8 5 -7 5 2 1 10 4 11 15 2 8 -7 17 -8 20 -3 6 11 76 -9 76 -21
0 -5 4 -6 9 -2 5 3 17 -2 25 -11 9 -8 16 -12 16 -7 0 4 4 4 8 -2 10 -14 70
-55 80 -55 5 0 18 -11 28 -25 10 -14 23 -25 28 -25 9 0 96 -86 96 -95 0 -3 -6
-5 -12 -5 -17 -1 -89 -56 -82 -63 3 -3 -4 -11 -16 -17 -12 -6 -19 -14 -16 -17
3 -4 0 -13 -8 -22 -13 -15 -48 -121 -45 -138 1 -4 0 -12 -1 -18 -6 -22 -5
-125 1 -125 4 0 9 -18 13 -40 3 -22 11 -40 16 -40 5 0 7 -6 4 -14 -3 -8 -1
-17 5 -21 6 -3 11 -15 11 -26 0 -10 5 -19 11 -19 5 0 7 -4 4 -10 -3 -5 0 -7 9
-4 9 4 14 17 13 39 -1 18 -6 31 -10 28 -5 -3 -4 5 3 17 10 18 9 24 -1 31 -11
7 -11 9 -1 9 9 0 10 5 3 18 -6 10 -6 24 -1 32 5 8 6 18 3 24 -4 5 -1 6 7 1 10
-6 12 -3 8 13 -4 12 -2 25 3 28 5 3 7 10 4 15 -4 5 -1 9 5 9 6 0 8 4 5 10 -3
5 1 20 10 33 8 13 12 27 8 32 -5 4 -2 5 5 1 6 -4 12 -3 12 1 0 10 56 73 65 73
4 0 18 9 32 20 14 11 29 17 34 14 5 -3 9 0 9 7 0 7 3 10 6 7 3 -4 21 0 40 8
27 11 34 11 34 2 0 -10 3 -9 9 1 5 7 13 11 19 7 6 -3 13 -2 16 2 3 5 32 8 66
7 33 0 60 2 60 5 0 3 24 4 52 3 29 0 59 3 66 9 8 7 12 7 12 -2 0 -10 3 -10 15
0 8 7 24 10 35 7 11 -3 17 -1 14 4 -3 6 0 18 7 27 7 9 10 14 5 10 -8 -6 -76
55 -76 68 0 3 -11 16 -25 30 -14 14 -25 29 -25 33 0 11 -79 10 -86 -1 -3 -4
-11 -8 -17 -8 -7 0 -6 4 3 10 11 7 3 9 -27 6 -25 -2 -43 0 -43 6 0 6 -6 5 -15
-2 -10 -8 -15 -9 -15 -2 0 6 -7 9 -15 6 -8 -4 -15 -1 -15 4 0 6 -9 9 -20 7
-11 -2 -20 0 -20 6 0 5 -3 8 -7 7 -12 -4 -123 55 -123 64 0 4 -5 8 -11 8 -6 0
-16 6 -24 13 -7 6 -32 28 -55 47 -24 19 -50 42 -60 50 -10 8 -32 26 -50 40
-18 14 -39 31 -46 38 -7 6 -17 12 -23 12 -6 0 -11 5 -11 12 0 6 -3 8 -7 5 -3
-4 -17 0 -29 8 -37 24 -164 41 -164 22z"/>
<path d="M1462 1582 c-12 -2 -20 -6 -18 -10 2 -4 -15 -8 -37 -9 -78 -4 -102
-8 -109 -18 -5 -6 -8 -5 -8 2 0 9 -7 10 -22 5 -13 -5 -30 -8 -38 -7 -8 1 -21
-4 -29 -9 -12 -9 -13 -8 -7 2 7 11 4 12 -11 3 -14 -7 -24 -7 -33 2 -10 9 -11
9 -5 -2 7 -11 2 -13 -24 -8 -18 4 -30 3 -27 -1 2 -4 -10 -6 -27 -6 -18 1 -36
-2 -42 -6 -5 -5 -14 -9 -20 -10 -5 -1 -21 -7 -35 -13 -14 -6 -28 -10 -32 -9
-5 1 -8 -5 -8 -13 0 -8 -4 -15 -9 -15 -12 0 -71 -59 -71 -71 0 -5 -4 -9 -10
-9 -5 0 -10 -5 -10 -12 0 -6 -8 -20 -17 -31 -11 -12 -12 -17 -4 -12 10 6 12 4
5 -6 -4 -8 -10 -21 -12 -29 -7 -26 -9 -125 -3 -135 3 -5 7 -19 8 -30 2 -11 8
-32 14 -47 6 -15 8 -31 5 -37 -4 -5 0 -14 9 -18 8 -5 16 -17 19 -28 9 -44 19
-65 27 -59 5 3 9 -1 9 -9 0 -7 7 -14 15 -14 9 0 11 4 6 11 -5 6 -7 19 -6 29 2
9 -1 17 -6 17 -5 0 -8 20 -5 45 3 32 1 43 -7 38 -7 -4 -5 4 3 17 9 14 15 35
14 47 -1 12 5 24 13 27 8 3 12 10 9 15 -3 5 14 28 38 52 59 59 73 70 97 74 12
2 27 9 34 15 9 8 14 8 17 -1 3 -8 8 -8 18 2 8 8 25 14 38 13 12 -1 25 3 28 8
3 5 11 4 19 -2 9 -8 14 -6 19 5 4 12 10 14 25 5 24 -12 34 -13 27 -1 -3 5 23
8 58 7 35 0 62 2 59 7 -3 6 43 12 68 9 4 -1 22 3 40 9 19 5 47 12 64 15 16 3
35 10 42 16 7 6 13 7 13 3 0 -4 7 -2 15 5 8 7 15 9 15 4 0 -4 7 1 15 12 8 10
15 15 15 11 0 -4 10 1 22 13 21 20 21 21 4 38 -11 9 -16 12 -12 5 6 -10 -72
24 -84 38 -3 3 -20 11 -37 18 -18 8 -33 18 -33 23 0 5 -4 7 -9 4 -5 -4 -11 -2
-13 4 -4 12 -34 18 -66 12z"/>
<path d="M1861 1373 c-25 -23 -48 -40 -53 -37 -4 3 -8 0 -8 -6 0 -10 -48 -35
-62 -32 -5 1 -8 -3 -8 -10 0 -6 -3 -8 -7 -5 -3 4 -12 2 -20 -4 -7 -6 -13 -9
-13 -5 0 4 -13 0 -30 -9 -20 -10 -30 -12 -30 -4 0 8 -4 8 -15 -1 -8 -6 -19 -9
-25 -5 -5 3 -10 0 -10 -7 0 -9 -3 -9 -10 2 -5 8 -10 10 -10 4 0 -6 -11 -10
-25 -9 -14 2 -25 -1 -25 -6 0 -6 -6 -7 -12 -2 -18 10 -38 13 -38 4 0 -4 -11
-7 -25 -7 -14 0 -25 4 -25 9 0 5 -7 4 -15 -3 -11 -9 -15 -9 -15 -1 0 7 -5 9
-12 5 -6 -4 -33 -9 -61 -11 -27 -2 -58 -8 -68 -14 -11 -5 -24 -7 -29 -4 -5 3
-11 1 -15 -5 -4 -6 -11 -8 -16 -5 -5 4 -9 1 -9 -4 0 -6 -7 -11 -15 -11 -8 0
-15 -5 -15 -12 0 -6 -3 -9 -6 -6 -5 6 -54 -35 -54 -46 0 -3 -7 -14 -15 -23 -8
-10 -15 -21 -15 -26 0 -4 -7 -21 -15 -37 -9 -17 -13 -30 -9 -30 4 0 1 -6 -5
-14 -9 -10 -9 -16 -1 -21 6 -4 7 -12 2 -18 -13 -18 -14 -69 -1 -61 8 5 8 1 0
-13 -6 -11 -7 -24 -3 -28 4 -3 7 -16 7 -28 1 -12 5 -29 10 -37 5 -8 11 -24 12
-35 2 -10 9 -23 16 -27 6 -4 9 -8 5 -8 -15 0 64 -137 88 -152 7 -4 15 -19 18
-33 4 -16 13 -25 26 -25 16 0 18 4 10 24 -5 13 -6 27 -3 30 4 3 2 6 -3 6 -9 0
-15 30 -18 93 0 15 -4 27 -8 27 -3 0 -4 10 0 22 4 16 2 19 -9 13 -11 -7 -12
-6 -4 6 6 8 10 38 9 67 -2 32 2 52 8 52 6 0 9 3 5 6 -3 4 0 22 8 40 8 19 11
34 8 34 -4 0 2 6 13 14 10 8 19 19 19 24 0 12 44 52 57 52 5 0 6 5 2 12 -4 6
-3 8 3 5 6 -4 24 0 39 8 16 8 37 15 47 15 9 0 17 5 17 11 0 8 5 8 15 -1 11
-10 15 -10 15 0 0 6 6 10 13 7 6 -2 20 0 29 4 10 6 19 5 23 -1 5 -8 12 -7 22
1 12 10 16 10 24 -2 7 -11 9 -11 9 0 0 8 7 11 20 8 11 -3 20 -2 20 1 0 4 26 7
58 7 l59 0 -4 -30 c-2 -16 -7 -31 -12 -33 -5 -2 -6 -16 -1 -33 5 -18 5 -29 -1
-29 -6 0 -7 -6 -2 -12 4 -7 8 -17 8 -23 2 -27 20 -73 38 -99 12 -16 15 -26 7
-21 -7 4 -5 -4 6 -18 10 -15 22 -27 27 -27 4 0 7 -5 7 -12 0 -15 80 -88 97
-88 7 0 13 -4 13 -8 0 -12 70 -43 81 -37 5 4 9 -2 9 -11 0 -10 3 -15 6 -11 4
3 18 0 33 -7 22 -12 28 -12 40 2 13 14 12 15 -7 10 -12 -3 -20 -3 -19 1 1 3
-18 26 -42 51 -47 48 -98 119 -103 141 -2 8 -6 17 -11 20 -4 3 -9 20 -10 37
-1 18 -5 32 -9 32 -4 0 -7 20 -6 45 0 26 5 45 12 45 6 0 4 5 -4 10 -12 8 -12
10 -1 10 8 0 12 3 8 6 -7 7 40 106 55 115 5 3 10 10 11 15 2 11 22 36 70 87
20 22 37 44 37 49 0 5 4 7 8 4 5 -3 17 7 28 21 10 15 24 31 29 37 21 24 49 61
41 54 -5 -4 -15 0 -24 8 -8 9 -18 12 -21 7 -7 -10 -21 -10 -36 -2 -5 2 -29 4
-52 3 -24 0 -43 2 -43 5 0 3 -15 6 -33 6 -24 0 -43 -10 -76 -42z"/>
<path d="M2326 1292 c-4 -4 -11 -7 -14 -8 -57 -7 -109 -79 -105 -146 2 -41 4
-47 19 -62 8 -9 13 -16 9 -16 -10 0 18 -26 42 -38 12 -7 31 -12 43 -12 14 0
19 -4 14 -12 -6 -10 -4 -10 7 -2 8 6 24 10 37 9 12 -1 22 2 22 7 0 5 5 6 10 3
6 -3 13 1 16 9 3 9 13 16 21 16 8 0 12 4 8 9 -3 6 2 14 11 19 23 13 29 98 9
142 -9 19 -32 45 -52 58 -19 13 -32 18 -27 10 4 -7 -2 -5 -13 5 -23 20 -38 23
-27 5 6 -10 5 -10 -8 -1 -8 7 -18 9 -22 5z m67 -74 c14 -7 27 -17 29 -23 2 -5
5 -9 8 -8 3 1 6 -16 5 -38 0 -21 -3 -39 -8 -39 -4 0 -12 -11 -19 -25 -6 -13
-15 -22 -19 -19 -5 3 -15 2 -21 -3 -19 -11 -38 -13 -38 -3 0 5 -10 10 -22 12
-13 2 -21 7 -20 12 2 5 -4 13 -13 18 -10 6 -14 16 -10 29 4 11 2 19 -5 19 -13
0 16 49 44 72 23 19 49 17 89 -4z"/>
<path d="M4144 1291 c-2 -3 -15 -6 -27 -8 -12 -2 -24 -8 -25 -13 -2 -6 -7 -9
-10 -7 -4 2 -15 -4 -24 -15 -10 -10 -15 -18 -12 -18 4 0 1 -6 -5 -14 -7 -8
-13 -22 -16 -32 -2 -11 -6 -27 -10 -36 -4 -10 -3 -18 2 -18 5 0 9 -10 10 -21
1 -12 10 -30 19 -40 9 -11 13 -19 8 -19 -23 0 61 -41 89 -43 18 -2 38 -7 46
-11 10 -6 12 -5 7 2 -5 8 0 12 13 12 24 0 83 48 75 61 -3 5 -1 9 4 9 13 0 21
59 10 67 -20 12 -117 6 -131 -9 -24 -24 9 -55 39 -36 13 9 24 0 24 -19 0 -7
-7 -13 -15 -13 -8 0 -15 -4 -15 -9 0 -13 -63 -3 -72 12 -4 6 -8 8 -8 4 0 -17
-32 24 -39 51 -9 34 7 79 32 86 10 2 17 8 14 13 -3 5 14 9 39 9 29 0 44 -5 44
-13 0 -7 7 -13 15 -13 8 0 15 -4 15 -10 0 -5 9 -1 20 10 11 11 20 23 20 28 0
10 -33 36 -51 40 -7 2 -16 7 -19 10 -6 8 -58 10 -66 3z"/>
<path d="M2555 1281 c-19 -6 -20 -14 -19 -135 0 -110 3 -129 17 -138 12 -6 17
-5 17 4 0 10 2 10 8 1 5 -8 11 -3 19 14 10 20 10 24 -2 19 -11 -4 -12 0 -5 18
5 14 5 27 -1 33 -6 6 -4 10 5 10 8 0 13 -4 11 -8 -3 -4 2 -10 11 -13 8 -3 12
-10 9 -16 -3 -5 -1 -10 5 -10 6 0 8 -4 5 -10 -3 -5 -1 -10 4 -10 6 0 11 -6 11
-14 0 -7 11 -16 25 -18 30 -6 47 29 21 44 -9 5 -14 13 -11 19 4 5 2 9 -2 9 -5
0 -14 14 -20 31 -7 17 -9 29 -6 25 8 -8 44 34 38 44 -3 5 1 10 7 13 10 3 10 7
1 18 -11 13 -13 19 -13 37 0 12 -43 35 -72 37 -15 1 -28 -3 -28 -9 0 -8 -3 -8
-8 0 -4 6 -16 8 -27 5z m78 -87 c-16 -26 -38 -22 -46 7 -3 10 -1 16 4 13 5 -3
12 2 15 10 5 12 10 13 24 4 16 -11 17 -14 3 -34z"/>
<path d="M2753 1274 c-8 -22 -8 -176 0 -181 4 -3 3 -11 -4 -19 -9 -11 -8 -14
2 -14 9 0 10 -3 4 -8 -15 -10 -12 -38 3 -35 7 2 12 -2 12 -7 0 -8 6 -8 18 -1
15 8 17 26 17 139 0 72 -3 128 -7 126 -5 -3 -8 -1 -8 4 0 14 -31 10 -37 -4z"/>
<path d="M2861 1272 c-12 -12 -12 -16 0 -23 12 -7 12 -9 0 -9 -10 0 -11 -3 -2
-13 6 -8 8 -17 4 -20 -12 -12 -12 -57 0 -57 8 0 8 -3 -1 -9 -8 -4 -14 -12 -14
-16 0 -4 6 -12 14 -16 11 -7 11 -9 -1 -9 -11 0 -11 -3 -1 -15 7 -9 8 -15 2
-15 -6 0 -9 -8 -7 -17 2 -10 4 -23 4 -29 1 -12 91 -25 91 -14 0 3 12 6 28 5
22 0 28 5 30 26 3 24 1 25 -45 25 l-48 -1 -1 35 -1 36 49 -4 c33 -2 48 1 43 7
-3 6 -1 11 5 11 25 0 -10 35 -37 36 -69 3 -71 4 -66 22 3 13 15 19 41 21 20 1
43 3 50 3 14 2 16 44 2 53 -5 3 -10 0 -10 -7 0 -10 -2 -10 -9 0 -9 15 -20 15
-37 1 -6 -5 -14 -6 -18 -2 -13 13 -52 10 -65 -5z"/>
<path d="M3057 1282 c-2 -4 -3 -65 -3 -137 l1 -130 25 0 c21 0 25 4 23 28 -1
17 2 25 9 21 7 -4 7 0 1 12 -9 20 -9 82 1 91 3 3 9 -3 13 -13 4 -10 12 -24 17
-31 35 -39 41 -48 36 -50 -3 -1 3 -12 13 -23 9 -11 17 -24 17 -29 0 -13 28
-22 35 -10 4 5 11 7 16 4 5 -4 9 0 10 7 3 50 3 256 0 252 -2 -2 -11 2 -19 8
-11 10 -17 9 -27 -5 -13 -18 -15 -114 -2 -134 13 -21 -10 -15 -31 7 -10 11
-25 33 -33 48 -8 15 -18 30 -24 34 -5 4 -7 8 -2 8 4 0 -2 9 -14 21 -21 21 -56
33 -62 21z"/>
<path d="M3309 1282 c-8 -42 -5 -53 12 -49 11 3 17 1 13 -4 -3 -5 0 -9 7 -9 7
0 9 -10 7 -25 -3 -14 -2 -28 3 -31 5 -2 4 -16 -1 -29 -7 -18 -6 -25 3 -25 8 0
8 -3 -2 -9 -11 -7 -11 -9 0 -14 8 -3 9 -6 4 -6 -7 -1 -9 -16 -7 -36 4 -29 8
-35 28 -35 14 0 27 6 29 13 9 25 12 86 4 81 -5 -3 -9 2 -9 11 0 10 5 13 12 9
7 -5 8 -3 2 7 -12 20 -14 39 -3 39 6 0 7 5 4 10 -4 6 -10 8 -15 5 -5 -3 -2 9
7 26 12 23 18 28 24 18 7 -11 9 -11 9 -1 0 7 4 11 9 8 5 -3 9 5 9 19 0 13 -7
26 -14 29 -8 3 -14 0 -14 -7 0 -8 -3 -8 -8 -2 -8 12 -47 14 -58 3 -4 -4 -12
-4 -18 -1 -15 10 -36 12 -37 5z"/>
<path d="M3564 1269 c-9 -10 -14 -19 -9 -19 4 0 2 -7 -5 -15 -7 -8 -10 -15 -6
-15 4 0 0 -10 -9 -23 -8 -13 -12 -27 -8 -30 3 -4 0 -7 -7 -7 -7 0 -11 -3 -7
-6 3 -4 0 -19 -9 -35 -8 -16 -11 -29 -8 -29 4 0 -1 -9 -11 -20 -10 -11 -14
-20 -10 -20 5 0 4 -5 -3 -12 -18 -18 -15 -24 18 -26 21 -2 32 4 41 20 7 13 10
25 8 28 -10 12 112 3 124 -9 10 -11 9 -12 -1 -6 -11 6 -11 3 0 -14 9 -15 21
-21 38 -19 27 3 33 25 13 46 -7 8 -11 18 -8 23 4 5 1 9 -4 9 -6 0 -11 8 -11
18 0 10 -6 24 -12 31 -11 11 -10 12 2 6 13 -8 13 -7 0 9 -8 10 -15 25 -17 34
-1 9 -6 18 -12 20 -5 2 -8 9 -5 16 6 16 -28 59 -49 62 -9 1 -23 -7 -33 -17z
m41 -89 c-3 -5 -1 -10 5 -10 7 0 10 -7 6 -15 -3 -8 -1 -15 4 -15 5 0 7 -7 4
-15 -5 -11 -11 -12 -24 -5 -13 7 -20 6 -23 -3 -3 -7 -6 -5 -6 5 -1 25 17 68
29 68 6 0 8 -4 5 -10z"/>
<path d="M3775 1277 c-8 -10 -12 -188 -6 -256 1 -9 13 -12 41 -9 23 2 40 -1
40 -7 0 -5 4 -4 9 4 7 11 9 11 14 0 4 -11 6 -11 6 -1 1 7 5 11 9 8 5 -3 6 9 4
25 -4 26 -8 29 -32 25 -15 -2 -34 0 -41 5 -12 7 -11 9 1 9 12 0 12 2 1 9 -10
6 -10 13 -3 28 6 11 7 25 2 33 -5 9 -5 19 2 27 6 8 7 13 1 13 -11 0 -9 41 1
59 6 9 -19 41 -32 41 -4 -1 -12 -6 -17 -13z"/>
<path d="M4438 1283 c-9 -2 -15 -10 -12 -17 3 -8 -2 -16 -10 -19 -9 -4 -13
-13 -10 -20 3 -8 -2 -21 -10 -30 -8 -8 -13 -17 -10 -19 2 -3 -2 -18 -10 -33
-8 -16 -13 -32 -10 -37 3 -4 0 -8 -6 -8 -6 0 -8 -4 -5 -10 3 -5 2 -10 -3 -10
-5 0 -9 -6 -10 -12 -1 -7 -3 -25 -6 -39 -6 -38 33 -33 59 8 25 40 28 41 50 23
12 -9 16 -10 11 -2 -5 9 1 12 23 10 22 -2 33 -9 41 -29 12 -28 56 -45 63 -25
3 7 -3 29 -13 49 -10 20 -15 35 -10 32 4 -2 0 11 -8 30 -9 19 -19 32 -24 29
-4 -3 -5 2 -2 11 4 8 1 22 -6 30 -6 8 -9 19 -5 25 3 5 1 10 -5 10 -7 0 -10 6
-8 13 5 12 -21 41 -38 43 -5 0 -17 -1 -26 -3z m32 -117 c-1 -5 4 -12 10 -16 7
-4 9 -13 6 -19 -4 -6 -12 -9 -17 -6 -5 4 -9 2 -9 -4 0 -6 -7 -8 -15 -5 -8 4
-15 10 -15 16 0 5 6 6 13 2 8 -5 8 -2 -2 9 -9 12 -10 17 -2 17 7 0 9 5 5 11
-4 7 0 10 10 7 10 -1 16 -7 16 -12z"/>
<path d="M4649 1268 c-5 -10 -7 -18 -3 -18 3 0 0 -8 -7 -17 -12 -15 -12 -16 1
-8 12 6 13 5 3 -6 -15 -15 -17 -33 -3 -24 5 3 3 -6 -5 -21 -7 -15 -11 -33 -8
-41 3 -7 -2 -22 -11 -32 -12 -13 -14 -21 -7 -26 7 -4 8 -12 2 -24 -5 -9 -6
-23 -2 -30 9 -14 53 -12 51 3 -1 5 4 13 12 17 9 6 10 9 1 9 -7 0 -10 6 -7 13
3 8 6 27 8 43 2 16 4 32 5 35 0 3 7 6 15 6 8 0 13 -8 11 -19 -2 -10 1 -18 6
-18 6 0 7 -4 4 -10 -3 -5 -3 -16 2 -22 8 -13 10 -19 12 -41 0 -7 10 -18 21
-24 15 -10 22 -10 35 4 9 8 14 22 11 30 -3 7 1 16 10 20 8 3 13 12 10 19 -3 7
-1 16 5 19 5 4 7 11 4 16 -4 5 -1 9 5 9 6 0 9 4 5 9 -3 5 -1 12 5 16 10 6 14
-13 13 -62 0 -13 4 -23 9 -23 6 0 7 -7 4 -16 -3 -9 0 -24 7 -33 9 -14 17 -16
37 -9 13 5 20 12 15 16 -6 4 -12 27 -13 52 -5 83 -6 90 -13 90 -4 0 -6 14 -5
30 1 17 -1 30 -5 30 -3 0 -5 11 -4 25 2 14 -1 23 -6 19 -5 -3 -9 -1 -9 5 0 10
-14 9 -42 -4 -10 -4 -16 -10 -14 -14 2 -3 -1 -17 -7 -31 -11 -28 -16 -47 -19
-72 -1 -10 -6 -18 -11 -18 -4 0 -5 -4 -2 -10 3 -5 2 -10 -4 -10 -12 0 -28 29
-26 50 0 8 -5 21 -12 28 -7 8 -11 17 -8 22 3 4 -2 20 -10 36 -16 32 -52 39
-66 12z"/>
<path d="M4963 1275 c-12 -9 -13 -14 -3 -20 10 -6 9 -9 -1 -16 -12 -7 -12 -9
0 -9 10 0 11 -3 2 -14 -9 -11 -9 -16 0 -21 8 -6 7 -10 -2 -16 -12 -7 -12 -9 0
-9 11 0 11 -3 1 -15 -9 -11 -9 -15 -1 -15 8 0 9 -5 1 -19 -7 -14 -7 -22 0 -26
7 -4 7 -11 2 -18 -5 -7 -9 -23 -7 -37 2 -24 4 -25 82 -27 77 -1 80 -1 78 20
-4 34 -4 34 -21 41 -15 6 -15 4 -3 -10 13 -16 12 -16 -9 -5 -17 9 -27 9 -37 1
-15 -12 -31 3 -20 20 3 6 2 10 -4 10 -10 0 -9 25 2 36 4 4 26 7 50 7 39 0 44
2 42 21 -4 33 -4 33 -21 40 -13 5 -14 4 -5 -7 9 -12 7 -13 -14 -9 -15 2 -22 9
-18 16 4 6 0 5 -9 -2 -14 -11 -18 -10 -27 7 -15 27 -14 34 4 27 8 -3 15 -1 15
5 0 6 7 6 20 -1 14 -7 20 -7 20 0 0 5 5 10 11 10 5 0 7 -6 3 -12 -6 -10 -4
-10 8 0 18 15 18 37 -2 55 -10 10 -11 9 -5 -2 6 -10 4 -12 -6 -5 -20 12 -38
14 -45 3 -3 -5 -11 -6 -17 -2 -19 11 -46 11 -64 -2z"/>
</g>
</svg>
