<svg id="6387bfd6-8e17-43d1-b7bc-1fb290813f3c" data-name="Layer 1" xmlns="http://www.w3.org/2000/svg" xmlns:xlink="http://www.w3.org/1999/xlink" viewBox="0 0 400.12 400"><defs><style>.d1a51256-a25d-4c33-be40-6731ddef1e30{fill:url(#26fcdc9f-59ba-4076-95c6-6fc16cc7c8a9);}.\30 a096a12-a587-4b68-8896-5f087d310ff8{fill:url(#23d7ac87-fffc-4fca-8477-736a0fe755cc);}.b4cc3271-1323-4a13-9408-557ae3690eb0{fill:url(#630f38df-e39c-4da4-b9de-cd18a257ec9d);}.\34 9272667-ed7e-4654-919d-8c9f46893b29{fill:url(#a84d22a4-f936-4acf-8022-81754f9195ea);}.\34 4b54ac1-23d8-477d-9e67-651b668def8d{fill:url(#cfbd771d-1e8e-43dc-ad03-93d067a47717);}.\35 59c863e-4783-4a98-a79c-b74444af1778{fill:url(#49c3f5f6-fa0c-4652-ad7a-4adb1c0066cc);}.\31 7f81a20-e1d4-41c2-bab1-6921f1a1812c{fill:url(#5d67cd2c-6b9c-43af-a64f-881151ba9a6c);}.\34 1469f3d-f84a-413e-8048-cf0caf65aa46{fill:url(#07181c32-c673-46cc-8c1e-448d09e575d8);}.\37 5315f83-bd69-44a7-bc34-e959b9f5bef1{fill:url(#1e9d93f5-34a4-46ef-bac2-861c8fa3ab60);}.\38 9972271-0830-4638-b034-d7df932fad79{fill:url(#7f78c1d8-b1bb-4c8e-ab79-3ca798530965);}.\37 d080714-05c1-465d-9abf-d478f4f8df3f{fill:url(#6e50949b-77b6-419e-9377-e1e4e03607ab);}</style><linearGradient id="26fcdc9f-59ba-4076-95c6-6fc16cc7c8a9" x1="769.85" y1="560.51" x2="939.22" y2="729.87" gradientUnits="userSpaceOnUse"><stop offset="0" stop-color="#95815b"/><stop offset="0.24" stop-color="#b5a887"/><stop offset="0.53" stop-color="#d9d5b9"/><stop offset="0.62" stop-color="#bbb499"/><stop offset="0.71" stop-color="#a2997e"/><stop offset="0.81" stop-color="#8f856b"/><stop offset="0.9" stop-color="#857960"/><stop offset="1" stop-color="#81755c"/></linearGradient><linearGradient id="23d7ac87-fffc-4fca-8477-736a0fe755cc" x1="805.15" y1="595.64" x2="831.48" y2="621.97" xlink:href="#26fcdc9f-59ba-4076-95c6-6fc16cc7c8a9"/><linearGradient id="630f38df-e39c-4da4-b9de-cd18a257ec9d" x1="877.58" y1="595.64" x2="903.91" y2="621.97" xlink:href="#26fcdc9f-59ba-4076-95c6-6fc16cc7c8a9"/><linearGradient id="a84d22a4-f936-4acf-8022-81754f9195ea" x1="805.15" y1="668.4" x2="831.48" y2="694.73" xlink:href="#26fcdc9f-59ba-4076-95c6-6fc16cc7c8a9"/><linearGradient id="cfbd771d-1e8e-43dc-ad03-93d067a47717" x1="877.58" y1="668.4" x2="903.91" y2="694.73" xlink:href="#26fcdc9f-59ba-4076-95c6-6fc16cc7c8a9"/><linearGradient id="49c3f5f6-fa0c-4652-ad7a-4adb1c0066cc" x1="981.14" y1="560.51" x2="1150.51" y2="729.87" xlink:href="#26fcdc9f-59ba-4076-95c6-6fc16cc7c8a9"/><linearGradient id="5d67cd2c-6b9c-43af-a64f-881151ba9a6c" x1="1088.87" y1="595.64" x2="1115.2" y2="621.97" xlink:href="#26fcdc9f-59ba-4076-95c6-6fc16cc7c8a9"/><linearGradient id="07181c32-c673-46cc-8c1e-448d09e575d8" x1="1016.44" y1="668.4" x2="1042.77" y2="694.73" xlink:href="#26fcdc9f-59ba-4076-95c6-6fc16cc7c8a9"/><linearGradient id="1e9d93f5-34a4-46ef-bac2-861c8fa3ab60" x1="1054.43" y1="633.65" x2="1080.76" y2="659.98" xlink:href="#26fcdc9f-59ba-4076-95c6-6fc16cc7c8a9"/><linearGradient id="7f78c1d8-b1bb-4c8e-ab79-3ca798530965" x1="769.91" y1="349.34" x2="939.28" y2="518.71" xlink:href="#26fcdc9f-59ba-4076-95c6-6fc16cc7c8a9"/><linearGradient id="6e50949b-77b6-419e-9377-e1e4e03607ab" x1="843.2" y1="422.48" x2="869.53" y2="448.81" xlink:href="#26fcdc9f-59ba-4076-95c6-6fc16cc7c8a9"/></defs><title>sicbo</title><path class="d1a51256-a25d-4c33-be40-6731ddef1e30" d="M915.72,565.67A18.36,18.36,0,0,1,934.06,584V706.38a18.36,18.36,0,0,1-18.34,18.34H793.34A18.35,18.35,0,0,1,775,706.38V584a18.35,18.35,0,0,1,18.33-18.34H915.72m0-14.89H793.34A33.23,33.23,0,0,0,760.12,584V706.38a33.23,33.23,0,0,0,33.22,33.23H915.72a33.23,33.23,0,0,0,33.23-33.23V584a33.23,33.23,0,0,0-33.23-33.23" transform="translate(-760.12 -339.61)"/><path class="0a096a12-a587-4b68-8896-5f087d310ff8" d="M831.48,622a18.62,18.62,0,1,1,0-26.33,18.62,18.62,0,0,1,0,26.33" transform="translate(-760.12 -339.61)"/><path class="b4cc3271-1323-4a13-9408-557ae3690eb0" d="M903.91,622a18.62,18.62,0,1,1,0-26.33,18.62,18.62,0,0,1,0,26.33" transform="translate(-760.12 -339.61)"/><path class="49272667-ed7e-4654-919d-8c9f46893b29" d="M831.48,694.73a18.62,18.62,0,1,1,0-26.33,18.62,18.62,0,0,1,0,26.33" transform="translate(-760.12 -339.61)"/><path class="44b54ac1-23d8-477d-9e67-651b668def8d" d="M903.91,694.73a18.62,18.62,0,1,1,0-26.33,18.62,18.62,0,0,1,0,26.33" transform="translate(-760.12 -339.61)"/><path class="559c863e-4783-4a98-a79c-b74444af1778" d="M1127,565.67A18.36,18.36,0,0,1,1145.35,584V706.38A18.36,18.36,0,0,1,1127,724.71H1004.63a18.35,18.35,0,0,1-18.33-18.34V584a18.35,18.35,0,0,1,18.33-18.34H1127m0-14.89H1004.63A33.23,33.23,0,0,0,971.41,584V706.38a33.23,33.23,0,0,0,33.22,33.23H1127a33.23,33.23,0,0,0,33.23-33.23V584A33.23,33.23,0,0,0,1127,550.77" transform="translate(-760.12 -339.61)"/><path class="17f81a20-e1d4-41c2-bab1-6921f1a1812c" d="M1115.2,622a18.62,18.62,0,1,1,0-26.33,18.62,18.62,0,0,1,0,26.33" transform="translate(-760.12 -339.61)"/><path class="41469f3d-f84a-413e-8048-cf0caf65aa46" d="M1042.77,694.73a18.62,18.62,0,1,1,0-26.33,18.62,18.62,0,0,1,0,26.33" transform="translate(-760.12 -339.61)"/><path class="75315f83-bd69-44a7-bc34-e959b9f5bef1" d="M1080.76,660a18.62,18.62,0,1,1,0-26.33,18.62,18.62,0,0,1,0,26.33" transform="translate(-760.12 -339.61)"/><path class="89972271-0830-4638-b034-d7df932fad79" d="M915.78,354.5a18.36,18.36,0,0,1,18.34,18.34V495.21a18.36,18.36,0,0,1-18.34,18.34H793.4a18.35,18.35,0,0,1-18.33-18.34V372.84A18.35,18.35,0,0,1,793.4,354.5H915.78m0-14.89H793.4a33.23,33.23,0,0,0-33.22,33.23V495.21a33.23,33.23,0,0,0,33.22,33.23H915.78A33.23,33.23,0,0,0,949,495.21V372.84a33.23,33.23,0,0,0-33.23-33.23" transform="translate(-760.12 -339.61)"/><path class="7d080714-05c1-465d-9abf-d478f4f8df3f" d="M869.53,448.81a18.62,18.62,0,1,1,0-26.33,18.62,18.62,0,0,1,0,26.33" transform="translate(-760.12 -339.61)"/></svg>