<svg xmlns="http://www.w3.org/2000/svg" viewBox="0 0 133.69 57.34"><defs><style>.cls-1{fill:#fcffff;}</style></defs><title>777_ico</title><g id="Layer_2" data-name="Layer 2"><g id="Layer_1-2" data-name="Layer 1"><path class="cls-1" d="M52.41,11.07H83.14c6,0,11.93,0,17.89,0a3.71,3.71,0,0,1,3.73,3.64c-.05,11.73,0,23.46,0,35.18,0,1.26,0,2.52,0,3.78a3.64,3.64,0,0,1-3.83,3.7q-34.4,0-68.78,0H3.83A3.51,3.51,0,0,1,.38,55.25,4.17,4.17,0,0,1,0,53.59Q0,40,0,26.45v-3.7c0-2.68,0-5.36,0-8a3.63,3.63,0,0,1,3.77-3.67Q28.1,11.1,52.41,11.07ZM70.75,34.49q0,8.55,0,17.11a3.88,3.88,0,0,0,.11,1,3.22,3.22,0,0,0,3.31,2.34q12.38,0,24.75,0a3.24,3.24,0,0,0,3.45-3.47c0-3.19,0-6.38,0-9.57V17.43A3.24,3.24,0,0,0,99,14.05q-12.51.09-25,0a3.18,3.18,0,0,0-3.26,3.28C70.77,23.05,70.75,28.77,70.75,34.49ZM2.62,34.38V51.6a4.62,4.62,0,0,0,.07,1,3.12,3.12,0,0,0,3.16,2.3H30.77a3.35,3.35,0,0,0,2.58-1,3.28,3.28,0,0,0,.83-2.42c0-2.15,0-4.3,0-6.44q0-13.69,0-27.4A4.58,4.58,0,0,0,33.93,16a2.91,2.91,0,0,0-3-1.92q-12.66,0-25.31,0a2.91,2.91,0,0,0-3,3.08Zm34.09.07c0,5.72,0,11.44,0,17.16A3.14,3.14,0,0,0,40,54.89c8.34,0,16.68,0,25,0a3.56,3.56,0,0,0,1.33-.24,2.86,2.86,0,0,0,1.89-2.87q0-7.48,0-15,0-9.9,0-19.8a2.86,2.86,0,0,0-2.82-2.92q-12.91,0-25.85,0a2.67,2.67,0,0,0-1.15.28,3.05,3.05,0,0,0-1.68,3C36.72,23,36.71,28.75,36.71,34.45Z"/><path class="cls-1" d="M89.14,48.36h-8V44.65a16.39,16.39,0,0,1,1.63-6.34,23,23,0,0,1,4.65-6.26c1.23-1.3,2.42-2.64,3.55-4l-1.47.43a6.54,6.54,0,0,1-3.14,0c-1-.19-2-.41-3.08-.52-1.86-.21-2.61.87-2.77,2.5-.1,1-.07,2-.11,3.06a1.41,1.41,0,0,1-.08.31H76V21.14h4.44v2.07A7.46,7.46,0,0,1,83,21a5.21,5.21,0,0,1,3.79-.33c1.5.46,2.93,1.12,4.4,1.66a4.38,4.38,0,0,0,1.52.36c.57,0,.75-.38,1-1.54h3.41a11.44,11.44,0,0,1,0,1.55,20.48,20.48,0,0,1-2.15,6c-1.18,2.41-2.42,4.79-3.55,7.23a22.42,22.42,0,0,0-1.65,5.21,32.15,32.15,0,0,0-.55,6.49A6.71,6.71,0,0,1,89.14,48.36Z"/><path class="cls-1" d="M7.85,21.13h4.43v2.15a18.91,18.91,0,0,1,1.37-1.51,5,5,0,0,1,5-1.08c1.74.52,3.42,1.26,5.14,1.87.95.35,1.58-.08,1.71-1.1,0-.09,0-.18,0-.32H29a9.49,9.49,0,0,1,0,1.31,18.31,18.31,0,0,1-1.6,4.94c-.41.88-.85,1.75-1.28,2.63-.94,1.88-1.95,3.72-2.78,5.65a33.57,33.57,0,0,0-1.53,4.5,34.63,34.63,0,0,0-.87,7.67c0,.16,0,.32-.05.52H13c0-.2,0-.36-.05-.52a22,22,0,0,1,.71-6.91,16.12,16.12,0,0,1,3.2-6.12c1.66-2,3.43-3.81,5.14-5.71.3-.33.58-.69.95-1.13a10.18,10.18,0,0,1-1.72.49,16.31,16.31,0,0,1-2.88,0c-1.23-.11-2.45-.44-3.68-.53a1.85,1.85,0,0,0-2.07,1.64c-.21,1.18-.24,2.39-.35,3.58,0,.2,0,.39,0,.64H7.85Z"/><path class="cls-1" d="M55.8,48.36h-8V44.65a16.57,16.57,0,0,1,1.63-6.34,23.23,23.23,0,0,1,4.66-6.26c1.23-1.3,2.41-2.64,3.55-4l-1.47.43a6.58,6.58,0,0,1-3.15,0c-1-.19-2-.41-3.07-.52-1.86-.21-2.61.87-2.77,2.5-.1,1-.08,2-.11,3.06a2.38,2.38,0,0,1-.08.31H42.68V21.14h4.44v2.07A7.43,7.43,0,0,1,49.61,21a5.23,5.23,0,0,1,3.8-.33c1.5.46,2.93,1.12,4.4,1.66a4.33,4.33,0,0,0,1.52.36c.56,0,.75-.38,1-1.54h3.4a10,10,0,0,1,0,1.55,19.92,19.92,0,0,1-2.15,6c-1.18,2.41-2.41,4.79-3.54,7.23a22.93,22.93,0,0,0-1.66,5.21,32.88,32.88,0,0,0-.54,6.49C55.86,47.86,55.82,48.09,55.8,48.36Z"/><path class="cls-1" d="M121.88,25.72c0-1.77-.06-3.54,0-5.31a1.39,1.39,0,0,0-1.12-1.6,9.3,9.3,0,0,1-6.41-8.11,9.69,9.69,0,0,1,19.11-3,9.55,9.55,0,0,1-5.68,10.86,1.61,1.61,0,0,0-1.14,1.76c0,4.51,0,9,0,13.54,0,2.37-.8,3.15-3.2,3.15-3,0-6,0-9,0-.79,0-1.06.24-1,1,0,1.39,0,2.78,0,4.17a3.08,3.08,0,0,1-3.13,3.15c-2.41.07-2.41.07-2.41-2.31,0-5.87,0-11.74,0-17.61,0-1.08.36-1.43,1.34-1.29a10.45,10.45,0,0,1,2.53.4,2.75,2.75,0,0,1,1.7,2.7c0,1.43,0,2.86,0,4.28,0,.69.24.94.91.93q3.33,0,6.66,0c.71,0,.89-.29.88-1C121.86,29.55,121.88,27.63,121.88,25.72Z"/></g></g></svg>