<svg xmlns="http://www.w3.org/2000/svg" viewBox="0 0 61 61"><defs><style>.cls-1,.cls-2{fill:#fcffff;}.cls-2{fill-rule:evenodd;}</style></defs><title>Emcee_ico</title><g id="Layer_2" data-name="Layer 2"><g id="Layer_1-2" data-name="Layer 1"><path class="cls-1" d="M26.67,8h.27c-5.22,0-10.39,2.82-14.11,7.82C8.2,22,6.54,30,8.51,36.78a.29.29,0,0,0,.11.21l-.8.48A25.61,25.61,0,0,1,6.92,31a25.24,25.24,0,0,1,5.91-16c3.78-4.48,8.84-7,13.84-7m1.92,1.86A14.67,14.67,0,0,1,33.91,11c-.53,13-10.49,18.15-19.33,22.73-1.81.91-3.51,1.81-5.11,2.77a17.23,17.23,0,0,1-.42-3.3A33.59,33.59,0,0,0,21,28.26c6.29-3.89,10.23-8.84,12.09-15.17a.47.47,0,0,0-.37-.64h-.16a.62.62,0,0,0-.53.37C28.59,24.11,13.47,30.71,9.05,32a24.3,24.3,0,0,1,7.45-16.4c3.83-3.78,7.93-5.75,12.09-5.75m6.81,1.17c0,.11,0,.21,0,.32s-.11.16-.11.27a43.43,43.43,0,0,1-1.59,7.45v.16s-.06,0-.06.11c-.32,1-.64,1.91-1,2.87v.11a0,0,0,0,1,0,0,35.58,35.58,0,0,1-6.66,11c-.32.32-4.74,4.32-7.35,6.23-2.76,2-3.62,4.26-2.71,7.08a11.33,11.33,0,0,0,3.73,5c-6.23-2.24-9.43-8.2-10.65-11.29C10.7,39.17,12.77,38,15,36.78,23.64,32,34.39,26,34.92,11.33h0a.46.46,0,0,0,.48-.27M26.67,7.49C15.7,7.49,6.33,18.89,6.33,31A24.92,24.92,0,0,0,7.5,38.32C16.77,32,34,28.21,34.39,10.58a15,15,0,0,0-5.86-1.22c-4.79,0-8.94,2.5-12.45,6-5.44,5.43-8.95,13.42-7.14,21.3-3.51-12.51,5.8-28.06,18-28.06a16.41,16.41,0,0,1,8,2.24,2.45,2.45,0,0,0-.54-.22C34.23,29.32,17.35,33.9,8.25,40.29c2.45,6.28,7.35,12.19,15.12,12.83-3.25-.74-6.28-4.15-7-6.49s-.26-4.47,2.56-6.5,7.45-6.28,7.45-6.28a35.49,35.49,0,0,0,6.76-11.23.22.22,0,0,0,.11.05h0c0-.05.05-.11.11-.21s0-.06.05-.11a.22.22,0,0,0-.11,0l-.05.06c.37-1,.69-2,1-2.93h.05c.06-.11.06-.27.11-.38a.26.26,0,0,1,.11-.21h-.06l-.32.37a43.17,43.17,0,0,0,1.66-7.56l0,.06c.05-.48.16-.91.21-1.39a17.11,17.11,0,0,0-9.37-2.93ZM8.94,32.63c3.57-1,19.91-7.67,23.64-19.7-2,6.92-6.44,11.5-11.87,14.85A33.63,33.63,0,0,1,8.94,32.63Z"/><path class="cls-1" d="M28.48,31.72c1.39,2.45,4.79,2.88,5.27,2.93h.16A17.16,17.16,0,0,0,38.7,35c2.13-.27,1.18-1.55,1.65-3.2a2.53,2.53,0,0,1-.9-.37c-.27-.21-.53-.43-.43-.64s.16.48,1.07.48,1-.48,1-.69-.27-.69-1.07-.48a4.13,4.13,0,0,1-1.81.21c-.31-.1-.42-.58.22-.48a2.19,2.19,0,0,0,1.81-.1c1-.38,1.44-.8,1.28-1.12s-.32-.48-1-.21c0,0-.16.1-.26.05a.71.71,0,0,1,.85-.48,1.21,1.21,0,0,1,.27-1.54c.79-.75,1.22-.91-.27-2.19s-2.77-2.29-2.24-4.79.06-4.68-3-7.61c0,0,0,.53,0,.53-.43,2.45-.91,4.68-1.44,6.65.16.06.9.16,1.6.38a9.9,9.9,0,0,0,1.38.26c.32,0,.53.06.53.32s-.42.54-1,.43a22.67,22.67,0,0,0-2.77-.8c0,.05,0,.16,0,.21v.06c-.26.9-.53,1.75-.85,2.61h.32s.43,0,.32-.06a12.78,12.78,0,0,0,1.54-.1,8.12,8.12,0,0,0,2.19-.91,2.27,2.27,0,0,1-1.18.91c.16.21.11.32.11.58a2,2,0,0,1-.11.37c0,.27-.16.27-.32.48a2.65,2.65,0,0,1,.8.86,6.64,6.64,0,0,0-1.81-1.23,12,12,0,0,0-1.75-.58c-.11,0-.16,0-.22-.06s0,.11,0,.21h0a34,34,0,0,1-4.53,8.63C28.45,31.68,28.48,31.72,28.48,31.72Zm11.66-5.43c.48-.37.64.05.64.05-.48,0-.64.22-1.06.59a.41.41,0,0,1-.64-.11C39.61,27.09,39.61,26.66,40.14,26.29Z"/><path class="cls-1" d="M30.24,41.89h-.75c-4.26-.43-3.94-3.62-3.94-3.62.38,2.87,3.09,3.25,3.94,3.3h.32a.53.53,0,0,0,0-.21c-.16-1.17-.05-4,3.25-6.23V35h0c-4.37-.69-4.58-3-4.58-3.3h0v0c-3.46,4.74-7.51,7-10.54,9.74-4.64,4.26,1.17,10.65,5.59,11.77h-.11c3.25.74,9.53,0,9.53,0S41.63,42.74,30.24,41.89Z"/><path class="cls-1" d="M43.71,41.78l-1-.32a21.77,21.77,0,0,1-3.42,9.16C41.9,48.44,43.71,41.78,43.71,41.78Z"/><path class="cls-1" d="M48.61,45.86a9.13,9.13,0,0,0,2.45-2.79l-.64,0A8.32,8.32,0,0,1,48.61,45.86Z"/><path class="cls-1" d="M49.78,43s-3.52,8.52-12.51,10.11c0,0,4.58-2.5,7-11.23A18.1,18.1,0,0,0,49.78,43Z"/><path class="cls-2" d="M51.4,35.8a.35.35,0,0,1,.24.42.34.34,0,0,1-.43.22l-.31-.09A11.17,11.17,0,0,0,49,36c-.63-.06-1.28-.09-1.9-.09a.37.37,0,0,1-.36-.34.34.34,0,0,1,.35-.34c.64,0,1.3,0,2,.1a12,12,0,0,1,2,.38l.32.1m.22-1.49a.34.34,0,0,1,.22.43.33.33,0,0,1-.43.21l-.54-.17a9,9,0,0,0-1.79-.33,17.85,17.85,0,0,0-1.79-.07.35.35,0,0,1-.36-.33.34.34,0,0,1,.34-.34c.62,0,1.23,0,1.86.07a10.27,10.27,0,0,1,1.92.36Zm.21-1.48a.34.34,0,0,1,.22.43.35.35,0,0,1-.44.2c-.26-.09-.51-.17-.77-.24a8.34,8.34,0,0,0-1.69-.32,15.47,15.47,0,0,0-1.67,0,.35.35,0,0,1-.36-.33.32.32,0,0,1,.33-.34,14.33,14.33,0,0,1,1.74,0,9.74,9.74,0,0,1,1.83.34Zm.2-1.48a.34.34,0,0,1,.22.43.35.35,0,0,1-.44.2c-.33-.12-.66-.23-1-.33a7.67,7.67,0,0,0-1.59-.29,13.16,13.16,0,0,0-1.54,0,.35.35,0,0,1-.37-.32.32.32,0,0,1,.32-.35,12.48,12.48,0,0,1,1.62,0A8.42,8.42,0,0,1,51,31C51.34,31.1,51.7,31.23,52,31.35Zm.21-1.48a.35.35,0,0,1,.21.44.34.34,0,0,1-.44.19c-.4-.15-.82-.3-1.23-.42a7,7,0,0,0-1.5-.27,11.16,11.16,0,0,0-1.41,0,.36.36,0,0,1-.38-.31.34.34,0,0,1,.32-.36,10.79,10.79,0,0,1,1.5,0,7.82,7.82,0,0,1,1.65.3C51.39,29.56,51.82,29.72,52.24,29.87Zm-1,7.43a.34.34,0,0,1,.24.42.36.36,0,0,1-.43.22l-.09,0a12.73,12.73,0,0,0-2-.38c-.68-.07-1.37-.11-2-.12a.35.35,0,0,1-.35-.35.33.33,0,0,1,.35-.33c.66,0,1.37.05,2.08.13a13.47,13.47,0,0,1,2.12.41Zm-1.8,1.3a.33.33,0,0,1,.39-.27.34.34,0,0,1,.29.39c-.26,1.79-.58,2.5-2.54,2.53-.88,0-.95-.57-.47-.55C48.88,40.68,49.16,40.23,49.4,38.6Zm1.82.4a.32.32,0,0,1,.36-.25.33.33,0,0,1,.27.36c-.24,1.62-.6,2.34-2.32,2.43-.79,0-.75-.3-.32-.31C50.76,41.13,51,40.48,51.22,39Zm1.29.29a.27.27,0,0,1,.32-.22.28.28,0,0,1,.24.31c-.21,1.47-.62,2.2-2.09,2.34-.71.07-.56,0-.17-.07C52.11,41.48,52.32,40.61,52.51,39.29ZM48.86,42A9.08,9.08,0,0,0,51,42c1.39-.1,2.4-.56,2.54-2l.09-.81c.05-.43-.09-.37-.6-.57-.25-.1-.54-.21-.84-.31a.33.33,0,1,1,.21-.63l.88.32c.33.13.46.26.51-.16s-.2-.51-.58-.68-.53-.22-.83-.33a.33.33,0,1,1,.23-.62c.33.11.63.23.88.34s.41.26.46-.13-.19-.53-.56-.71-.52-.23-.81-.35a.34.34,0,0,1-.2-.44.33.33,0,0,1,.44-.18,8.43,8.43,0,0,1,.87.37c.3.14.38.25.42-.12s-.18-.54-.54-.73a7.79,7.79,0,0,0-.8-.36.36.36,0,0,1-.19-.45.33.33,0,0,1,.45-.17,9,9,0,0,1,.86.39c.28.14.35.25.39-.11s-.18-.56-.53-.75a8.21,8.21,0,0,0-.78-.38A.33.33,0,0,1,52.8,32a.35.35,0,0,1,.46-.17,8.46,8.46,0,0,1,.85.41c.26.15.31.24.35-.1s-.18-.57-.51-.77-.48-.26-.77-.39a.34.34,0,1,1,.28-.61,9.21,9.21,0,0,1,.84.43l.2.13a.07.07,0,0,0,.11-.05l0-.42a3.29,3.29,0,0,0-.27-1.71,3.38,3.38,0,0,1,0,1.14.28.28,0,0,1-.55-.11A2.23,2.23,0,0,0,52.6,27a2.44,2.44,0,0,1,.5,2.31c-.08.38-.71.26-.64-.12a2.14,2.14,0,0,0-1.54-2.78,2.18,2.18,0,0,1,.36,2.11c-.07.42-.79.29-.71-.12.24-1.23-.07-1.86-1.1-2.21-1.62,0-3.77.33-4.75,1.28a3.08,3.08,0,0,0-1.07,2.31,2.08,2.08,0,0,1,.3-.13,7.72,7.72,0,0,1,1.71-.35.37.37,0,0,1,.4.3.34.34,0,0,1-.3.37,6.62,6.62,0,0,0-1.55.32c-.16.05-.65.22-.67.41l0,.29a.14.14,0,0,0,.06.12.13.13,0,0,0,.13,0l.09,0a8.13,8.13,0,0,1,1.71-.32.35.35,0,0,1,.38.3.32.32,0,0,1-.3.37,8.38,8.38,0,0,0-1.56.28,1.76,1.76,0,0,0-.6.31l0,.08,0,.31a.13.13,0,0,0,.18.14l.08,0a9.25,9.25,0,0,1,1.71-.28.35.35,0,0,1,.38.3.33.33,0,0,1-.31.37,9.1,9.1,0,0,0-1.56.25,2,2,0,0,0-.56.24.11.11,0,0,0,0,.09l0,.35a.11.11,0,0,0,0,.12.15.15,0,0,0,.13,0l.08,0a10,10,0,0,1,1.7-.25.36.36,0,0,1,.38.31.34.34,0,0,1-.31.37,9.58,9.58,0,0,0-1.57.22,2.31,2.31,0,0,0-.51.17.12.12,0,0,0-.07.1l0,.39a.13.13,0,0,0,0,.12.15.15,0,0,0,.13,0A11.86,11.86,0,0,1,45,35.27a.35.35,0,0,1,.37.31.32.32,0,0,1-.31.36,10.7,10.7,0,0,0-1.7.22l-.34.1a.14.14,0,0,0-.09.11l-.05.42a.13.13,0,0,0,.05.11.14.14,0,0,0,.12,0,12.31,12.31,0,0,1,1.77-.19.35.35,0,0,1,.37.32.32.32,0,0,1-.32.35,13.93,13.93,0,0,0-1.69.18l-.31.07a.13.13,0,0,0-.1.11v.09c-.22,1.84.66,2.8,2.38,3.29A27.57,27.57,0,0,0,48.86,42Z"/><path class="cls-1" d="M30.5,2.41A28.09,28.09,0,1,0,58.59,30.5,28.09,28.09,0,0,0,30.5,2.41Zm0,54.64A26.55,26.55,0,1,1,57.05,30.5,26.55,26.55,0,0,1,30.5,57.05Z"/><path class="cls-1" d="M30.5,0A30.5,30.5,0,1,0,61,30.5,30.51,30.51,0,0,0,30.5,0Zm0,59.26A28.76,28.76,0,1,1,59.26,30.5,28.76,28.76,0,0,1,30.5,59.26Z"/></g></g></svg>