<svg id="ca1fae26-59c0-4e0f-a9b3-c2a354cfade2" data-name="Layer 1" xmlns="http://www.w3.org/2000/svg" xmlns:xlink="http://www.w3.org/1999/xlink" viewBox="0 0 437.49 400"><defs><style>.b115a3c5-c011-4efb-ba45-462baced6374{fill:url(#4e3cad46-d98c-4abb-8587-fad974887088);}.fd48bca1-ceb8-4a8f-bce6-b713cc6fcbb0{fill:url(#ef95aad1-a6d9-4a82-9d0f-25bc789b3eaa);}.\39 e96f5c9-69d0-4c43-a085-00c05d8e7555{fill:url(#a587a7c8-564a-4e82-b7eb-2de645b1b7c9);}</style><linearGradient id="4e3cad46-d98c-4abb-8587-fad974887088" x1="1004.91" y1="565.92" x2="1148.76" y2="709.77" gradientUnits="userSpaceOnUse"><stop offset="0" stop-color="#95815b"/><stop offset="0.24" stop-color="#b5a887"/><stop offset="0.53" stop-color="#d9d5b9"/><stop offset="0.62" stop-color="#bbb499"/><stop offset="0.71" stop-color="#a2997e"/><stop offset="0.81" stop-color="#8f856b"/><stop offset="0.9" stop-color="#857960"/><stop offset="1" stop-color="#81755c"/></linearGradient><linearGradient id="ef95aad1-a6d9-4a82-9d0f-25bc789b3eaa" x1="771.01" y1="565.92" x2="914.86" y2="709.77" xlink:href="#4e3cad46-d98c-4abb-8587-fad974887088"/><linearGradient id="a587a7c8-564a-4e82-b7eb-2de645b1b7c9" x1="887.9" y1="369.51" x2="1031.75" y2="513.36" xlink:href="#4e3cad46-d98c-4abb-8587-fad974887088"/></defs><title>fantan</title><path class="b115a3c5-c011-4efb-ba45-462baced6374" d="M1076.84,550.59a87.25,87.25,0,1,1-87.25,87.25,87.35,87.35,0,0,1,87.25-87.25m0-14.55a101.8,101.8,0,1,0,101.79,101.8A102,102,0,0,0,1076.84,536" transform="translate(-741.14 -339.64)"/><path class="fd48bca1-ceb8-4a8f-bce6-b713cc6fcbb0" d="M842.94,550.59a87.25,87.25,0,1,1-87.25,87.25,87.35,87.35,0,0,1,87.25-87.25m0-14.55a101.8,101.8,0,1,0,101.79,101.8A102,102,0,0,0,842.94,536" transform="translate(-741.14 -339.64)"/><path class="9e96f5c9-69d0-4c43-a085-00c05d8e7555" d="M959.82,354.19a87.25,87.25,0,1,1-87.25,87.25,87.35,87.35,0,0,1,87.25-87.25m0-14.55a101.8,101.8,0,1,0,101.79,101.79A102,102,0,0,0,959.82,339.64" transform="translate(-741.14 -339.64)"/></svg>