<svg xmlns="http://www.w3.org/2000/svg" viewBox="0 0 77 77"><defs><style>.cls-1{fill:#daa520;}</style></defs><title>icon_maximize</title><g id="Layer_2" data-name="Layer 2"><g id="Layer_1-2" data-name="Layer 1"><path class="cls-1" d="M71.51,47.06A5.49,5.49,0,0,0,66,52.55v4.91L55.35,46.8a6,6,0,0,0-8.55,8.55L57.46,66H52.55a5.49,5.49,0,0,0-5.49,5.49h0A5.49,5.49,0,0,0,52.55,77h19A5.49,5.49,0,0,0,77,71.51v-19A5.49,5.49,0,0,0,71.51,47.06Z"/><path class="cls-1" d="M30.75,46.8a6,6,0,0,0-8.55,0L11,58V52.55a5.49,5.49,0,0,0-11,0v19A5.49,5.49,0,0,0,5.49,77h19a5.49,5.49,0,0,0,5.49-5.49h0A5.49,5.49,0,0,0,24.45,66H20.09L30.75,55.35A6,6,0,0,0,30.75,46.8Z"/><path class="cls-1" d="M71.51,0h-19a5.49,5.49,0,1,0,0,11H58L46.8,22.2a6,6,0,0,0,8.55,8.55L66,20.09v4.36a5.49,5.49,0,1,0,11,0v-19A5.49,5.49,0,0,0,71.51,0Z"/><path class="cls-1" d="M30.75,22.2,19.54,11h4.91a5.49,5.49,0,1,0,0-11h-19A5.49,5.49,0,0,0,0,5.49v19a5.49,5.49,0,1,0,11,0V19.54L22.2,30.75a6,6,0,1,0,8.55-8.55Z"/></g></g></svg>