<svg xmlns="http://www.w3.org/2000/svg" viewBox="0 0 77 77"><defs><style>.cls-1{fill:#daa520;}</style></defs><title>icon_minimize</title><g id="Layer_2" data-name="Layer 2"><g id="Layer_1-2" data-name="Layer 1"><path class="cls-1" d="M50.51,75A5.49,5.49,0,0,0,56,69.48V64.56L66.67,75.23a6.05,6.05,0,0,0,8.56-8.56L64.56,56h4.92A5.49,5.49,0,0,0,75,50.51h0A5.49,5.49,0,0,0,69.48,45h-19A5.49,5.49,0,0,0,45,50.51v19A5.49,5.49,0,0,0,50.51,75Z"/><path class="cls-1" d="M1.77,75.23a6.06,6.06,0,0,0,8.56,0L21.55,64v5.47a5.49,5.49,0,0,0,11,0v-19A5.49,5.49,0,0,0,27,45h-19a5.49,5.49,0,0,0-5.49,5.49h0A5.49,5.49,0,0,0,8.07,56h4.37L1.77,66.67A6.06,6.06,0,0,0,1.77,75.23Z"/><path class="cls-1" d="M50.51,32.53h19a5.49,5.49,0,0,0,0-11H64L75.23,10.33a6.05,6.05,0,1,0-8.56-8.56L56,12.44V8.07a5.49,5.49,0,0,0-11,0V27A5.49,5.49,0,0,0,50.51,32.53Z"/><path class="cls-1" d="M1.77,10.33,13,21.55H8.07a5.49,5.49,0,0,0,0,11H27A5.49,5.49,0,0,0,32.53,27v-19a5.49,5.49,0,0,0-11,0V13L10.33,1.77a6.05,6.05,0,0,0-8.56,8.56Z"/></g></g></svg>